<?xml version="1.0" encoding="UTF-8" standalone="no"?>
<!DOCTYPE svg PUBLIC "-//W3C//DTD SVG 1.1//EN" "http://www.w3.org/Graphics/SVG/1.1/DTD/svg11.dtd">
<svg xmlns="http://www.w3.org/2000/svg" xmlns:xlink="http://www.w3.org/1999/xlink" version="1.1" width="552.08pt" height="238.6pt" viewBox="0 0 552.08 238.6">
<g enable-background="new">
<path transform="matrix(.24,0,0,.24,-110.96,-179.74997)" d="M 0 0 L 3216 0 L 3216 2466 L 0 2466 Z " fill="#ffffff"/>
<clipPath id="cp0">
<path transform="matrix(.24,0,0,.24,-110.96,-179.74997)" d="M 476.75 755.9167 L 2739.25 755.9167 L 2739.25 1710.0834 L 476.75 1710.0834 L 476.75 755.9167 Z " fill-rule="evenodd"/>
</clipPath>
<g clip-path="url(#cp0)">
<path transform="matrix(.99999997,0,0,.99999997,21.46,88.67001)" d="M 0 .5 C 0 .22385763 .22385763 0 .5 0 L 263.5 0 C 263.77616 0 264 .22385763 264 .5 L 264 124.5 C 264 124.77614 263.77616 125 263.5 125 L .5 125 C .22385763 125 0 124.77614 0 124.5 L 0 .5 Z " fill="#e6e6ff" fill-rule="evenodd"/>
<path transform="matrix(.99999997,0,0,.99999997,21.46,88.67001)" stroke-width=".24" stroke-linecap="butt" stroke-miterlimit="2" stroke-linejoin="miter" fill="none" stroke="#45454c" d="M 0 .5 C 0 .22385763 .22385763 0 .5 0 L 263.5 0 C 263.77616 0 264 .22385763 264 .5 L 264 124.5 C 264 124.77614 263.77616 125 263.5 125 L .5 125 C .22385763 125 0 124.77614 0 124.5 L 0 .5 Z "/>
</g>
<clipPath id="cp1">
<path transform="matrix(.24,0,0,.24,-110.96,-179.74997)" d="M 476.75 755.9167 L 2739.25 755.9167 L 2739.25 1710.0834 L 476.75 1710.0834 L 476.75 755.9167 Z " fill-rule="evenodd"/>
</clipPath>
<g clip-path="url(#cp1)">
<clipPath id="cp2">
<path transform="matrix(.24,0,0,.24,-110.96,-179.74997)" d="M 551.75 1118.4166 L 1651.75 1118.4166 L 1651.75 1639.25 L 551.75 1639.25 L 551.75 1118.4166 Z " fill-rule="evenodd"/>
</clipPath>
<g clip-path="url(#cp2)">
</g>
</g>
<clipPath id="cp3">
<path transform="matrix(.24,0,0,.24,-110.96,-179.74997)" d="M 476.75 755.9167 L 2739.25 755.9167 L 2739.25 1710.0834 L 476.75 1710.0834 L 476.75 755.9167 Z " fill-rule="evenodd"/>
</clipPath>
<g clip-path="url(#cp3)">
</g>
<clipPath id="cp4">
<path transform="matrix(.24,0,0,.24,-110.96,-179.74997)" d="M 476.75 755.9167 L 2739.25 755.9167 L 2739.25 1710.0834 L 476.75 1710.0834 L 476.75 755.9167 Z " fill-rule="evenodd"/>
</clipPath>
<g clip-path="url(#cp4)">
<clipPath id="cp5">
<path transform="matrix(.24,0,0,.24,-110.96,-179.74997)" d="M 551.75 1118.4166 L 1651.75 1118.4166 L 1651.75 1639.25 L 551.75 1639.25 L 551.75 1118.4166 Z " fill-rule="evenodd"/>
</clipPath>
<g clip-path="url(#cp5)">
</g>
</g>
<clipPath id="cp6">
<path transform="matrix(.24,0,0,.24,-110.96,-179.74997)" d="M 476.75 755.9167 L 2739.25 755.9167 L 2739.25 1710.0834 L 476.75 1710.0834 L 476.75 755.9167 Z " fill-rule="evenodd"/>
</clipPath>
<g clip-path="url(#cp6)">
<clipPath id="cp7">
<path transform="matrix(.24,0,0,.24,-110.96,-179.74997)" d="M 551.75 1118.4166 L 1651.75 1118.4166 L 1651.75 1639.25 L 551.75 1639.25 L 551.75 1118.4166 Z " fill-rule="evenodd"/>
</clipPath>
<g clip-path="url(#cp7)">
<clipPath id="cp8">
<path transform="matrix(.24,0,0,.24,-110.96,-179.74997)" d="M 563.95419 1118.1209 L 793.7068 1118.1209 L 793.7068 1176.4541 L 563.95419 1176.4541 L 563.95419 1118.1209 Z " fill-rule="evenodd"/>
</clipPath>
<g clip-path="url(#cp8)">
<g id="Layer-1" data-name="Span">
</g>
<text fill="#45454c" xml:space="preserve" transform="matrix(.99999997 0 0 .99999997 24.389 88.59903)" font-size="10" font-family="ArialMT"><tspan y="10" x="1 7.65625 13.203125 15.96875 18.1875 21.515625 28.734375 30.953125 36.5 42.046876 47.59375 .5 7.15625 12.703125 15.46875 17.6875 21.015625 28.234375 30.453125 36 41.546876 47.09375">Anti-windupAnti-windup</tspan></text>
</g>
</g>
</g>
<clipPath id="cp9">
<path transform="matrix(.24,0,0,.24,-110.96,-179.74997)" d="M 476.75 755.9167 L 2739.25 755.9167 L 2739.25 1710.0834 L 476.75 1710.0834 L 476.75 755.9167 Z " fill-rule="evenodd"/>
</clipPath>
<g clip-path="url(#cp9)">
</g>
<clipPath id="cp10">
<path transform="matrix(.24,0,0,.24,-110.96,-179.74997)" d="M 476.75 755.9167 L 2739.25 755.9167 L 2739.25 1710.0834 L 476.75 1710.0834 L 476.75 755.9167 Z " fill-rule="evenodd"/>
</clipPath>
<g clip-path="url(#cp10)">
<clipPath id="cp11">
<path transform="matrix(.24,0,0,.24,-110.96,-179.74997)" d="M 551.75 1118.4166 L 1651.75 1118.4166 L 1651.75 1639.25 L 551.75 1639.25 L 551.75 1118.4166 Z " fill-rule="evenodd"/>
</clipPath>
<g clip-path="url(#cp11)">
</g>
</g>
<clipPath id="cp12">
<path transform="matrix(.24,0,0,.24,-110.96,-179.74997)" d="M 476.75 755.9167 L 2739.25 755.9167 L 2739.25 1710.0834 L 476.75 1710.0834 L 476.75 755.9167 Z " fill-rule="evenodd"/>
</clipPath>
<g clip-path="url(#cp12)">
<path transform="matrix(.99999997,0,0,.99999997,164.46002,128.67005)" d="M 0 0 L 50 0 L 50 72 L 0 72 Z " fill="#ffffff"/>
</g>
<clipPath id="cp13">
<path transform="matrix(.24,0,0,.24,-110.96,-179.74997)" d="M 476.75 755.9167 L 2739.25 755.9167 L 2739.25 1710.0834 L 476.75 1710.0834 L 476.75 755.9167 Z " fill-rule="evenodd"/>
</clipPath>
<g clip-path="url(#cp13)">
<clipPath id="cp14">
<path transform="matrix(.24,0,0,.24,-110.96,-179.74997)" d="M 1147.5834 1285.0834 L 1355.9166 1285.0834 L 1355.9166 1585.0834 L 1147.5834 1585.0834 L 1147.5834 1285.0834 Z " fill-rule="evenodd"/>
</clipPath>
<g clip-path="url(#cp14)">
<path transform="matrix(.99999997,0,0,.99999997,369.96003,75.17001)" stroke-width=".24" stroke-linecap="butt" stroke-miterlimit="2" stroke-linejoin="miter" fill="none" stroke="#000000" d="M -185 116 L -185 118 "/>
<path transform="matrix(.99999997,0,0,.99999997,369.96003,75.17001)" stroke-width=".24" stroke-linecap="butt" stroke-miterlimit="2" stroke-linejoin="miter" fill="none" stroke="#000000" d="M -185 118 L -182 118 "/>
<path transform="matrix(.99999997,0,0,.99999997,369.96003,75.17001)" stroke-width=".24" stroke-linecap="butt" stroke-miterlimit="2" stroke-linejoin="miter" fill="none" stroke="#000000" d="M -182 118 L -182 114 "/>
<path transform="matrix(.99999997,0,0,.99999997,369.96003,75.17001)" stroke-width=".24" stroke-linecap="butt" stroke-miterlimit="2" stroke-linejoin="miter" fill="none" stroke="#000000" d="M -182 114 L -185 114 "/>
<path transform="matrix(.99999997,0,0,.99999997,369.96003,75.17001)" stroke-width=".24" stroke-linecap="butt" stroke-miterlimit="2" stroke-linejoin="miter" fill="none" stroke="#000000" d="M -185 114 L -185 116 "/>
<path transform="matrix(.99999997,0,0,.99999997,369.96003,75.17001)" stroke-width=".24" stroke-linecap="butt" stroke-miterlimit="2" stroke-linejoin="miter" fill="none" stroke="#000000" d="M -185 116 L -205 116 "/>
<path transform="matrix(.99999997,0,0,.99999997,369.96003,75.17001)" stroke-width=".24" stroke-linecap="butt" stroke-miterlimit="2" stroke-linejoin="miter" fill="none" stroke="#000000" d="M -185 65 L -185 67 "/>
<path transform="matrix(.99999997,0,0,.99999997,369.96003,75.17001)" stroke-width=".24" stroke-linecap="butt" stroke-miterlimit="2" stroke-linejoin="miter" fill="none" stroke="#000000" d="M -185 67 L -182 67 "/>
<path transform="matrix(.99999997,0,0,.99999997,369.96003,75.17001)" stroke-width=".24" stroke-linecap="butt" stroke-miterlimit="2" stroke-linejoin="miter" fill="none" stroke="#000000" d="M -182 67 L -182 63 "/>
<path transform="matrix(.99999997,0,0,.99999997,369.96003,75.17001)" stroke-width=".24" stroke-linecap="butt" stroke-miterlimit="2" stroke-linejoin="miter" fill="none" stroke="#000000" d="M -182 63 L -185 63 "/>
<path transform="matrix(.99999997,0,0,.99999997,369.96003,75.17001)" stroke-width=".24" stroke-linecap="butt" stroke-miterlimit="2" stroke-linejoin="miter" fill="none" stroke="#000000" d="M -185 63 L -185 65 "/>
<path transform="matrix(.99999997,0,0,.99999997,369.96003,75.17001)" stroke-width=".24" stroke-linecap="butt" stroke-miterlimit="2" stroke-linejoin="miter" fill="none" stroke="#000000" d="M -185 65 L -205 65 "/>
<path transform="matrix(.99999997,0,0,.99999997,369.96003,75.17001)" stroke-width=".24" stroke-linecap="butt" stroke-miterlimit="2" stroke-linejoin="miter" fill="none" stroke="#000000" d="M -183 65 L -165 90 "/>
<path transform="matrix(.99999997,0,0,.99999997,369.96003,75.17001)" stroke-width=".24" stroke-linecap="butt" stroke-miterlimit="2" stroke-linejoin="miter" fill="none" stroke="#000000" d="M -165 90 L -155 90 "/>
<path transform="matrix(.99999997,0,0,.99999997,369.96003,75.17001)" stroke-width=".24" stroke-linecap="butt" stroke-miterlimit="2" stroke-linejoin="miter" fill="none" stroke="#000000" d="M -198 98 L -198 83 "/>
<path transform="matrix(.99999997,0,0,.99999997,369.96003,75.17001)" stroke-width=".24" stroke-linecap="butt" stroke-miterlimit="2" stroke-linejoin="miter" fill="none" stroke="#000000" d="M -198 83 L -198 90 "/>
<path transform="matrix(.99999997,0,0,.99999997,369.96003,75.17001)" stroke-width=".24" stroke-linecap="butt" stroke-miterlimit="2" stroke-linejoin="miter" fill="none" stroke="#000000" d="M -198 90 L -205 90 "/>
<text xml:space="preserve" transform="matrix(.99999997 0 0 .99999997 173.46002 163.67002)" font-size="10" font-family="ArialMT"><tspan y="3.5" x="0 2.765625 8.59375 14.421875 17.1875">&#x0009;~=&#x0009;0</tspan></text>
</g>
</g>
<clipPath id="cp15">
<path transform="matrix(.24,0,0,.24,-110.96,-179.74997)" d="M 476.75 755.9167 L 2739.25 755.9167 L 2739.25 1710.0834 L 476.75 1710.0834 L 476.75 755.9167 Z " fill-rule="evenodd"/>
</clipPath>
<g clip-path="url(#cp15)">
<path transform="matrix(.99999997,0,0,.99999997,164.46002,128.67005)" stroke-width=".5650469" stroke-linecap="butt" stroke-miterlimit="2" stroke-linejoin="miter" fill="none" stroke="#000000" d="M 0 0 L 50 0 L 50 72 L 0 72 Z "/>
<path transform="matrix(.24,0,0,.24,-110.96,-179.74997)" d="M 635.0833 885.0833 L 701.75 885.0833 C 717.8583 885.0833 730.9167 898.1417 730.9167 914.25 C 730.9167 930.3583 717.8583 943.4167 701.75 943.4167 L 635.0833 943.4167 C 618.97506 943.4167 605.9167 930.3583 605.9167 914.25 C 605.9167 898.1417 618.97506 885.0833 635.0833 885.0833 Z " fill="#ffffff"/>
</g>
<clipPath id="cp16">
<path transform="matrix(.24,0,0,.24,-110.96,-179.74997)" d="M 476.75 755.9167 L 2739.25 755.9167 L 2739.25 1710.0834 L 476.75 1710.0834 L 476.75 755.9167 Z " fill-rule="evenodd"/>
</clipPath>
<g clip-path="url(#cp16)">
<clipPath id="cp17">
<path transform="matrix(.24,0,0,.24,-110.96,-179.74997)" d="M 605.9167 885.0833 L 730.9167 885.0833 L 730.9167 943.4167 L 605.9167 943.4167 L 605.9167 885.0833 Z " fill-rule="evenodd"/>
</clipPath>
<g clip-path="url(#cp17)">
<text xml:space="preserve" transform="matrix(.99999997 0 0 .99999997 49.46 39.67003)" font-size="10" font-family="ArialMT"><tspan y="3.5" x="-2.765625">1</tspan></text>
</g>
</g>
<clipPath id="cp18">
<path transform="matrix(.24,0,0,.24,-110.96,-179.74997)" d="M 476.75 755.9167 L 2739.25 755.9167 L 2739.25 1710.0834 L 476.75 1710.0834 L 476.75 755.9167 Z " fill-rule="evenodd"/>
</clipPath>
<g clip-path="url(#cp18)">
<path transform="matrix(.99999997,0,0,.99999997,34.46,32.670015)" stroke-width=".5650469" stroke-linecap="butt" stroke-miterlimit="2" stroke-linejoin="miter" fill="none" stroke="#000000" d="M 7 0 L 23 0 C 26.865994 0 30 3.1340068 30 7 C 30 10.8659939 26.865994 14 23 14 L 7 14 C 3.1340068 14 0 10.8659939 0 7 C 0 3.1340068 3.1340068 0 7 0 Z "/>
</g>
<clipPath id="cp19">
<path transform="matrix(.24,0,0,.24,-110.96,-179.74997)" d="M 476.75 755.9167 L 2739.25 755.9167 L 2739.25 1710.0834 L 476.75 1710.0834 L 476.75 755.9167 Z " fill-rule="evenodd"/>
</clipPath>
<g clip-path="url(#cp19)">
<clipPath id="cp20">
<path transform="matrix(.24,0,0,.24,-110.96,-179.74997)" d="M 607.6094 818.4167 L 729.22396 818.4167 L 729.22396 876.75 L 607.6094 876.75 L 607.6094 818.4167 Z " fill-rule="evenodd"/>
</clipPath>
<g clip-path="url(#cp20)">
<text xml:space="preserve" transform="matrix(.99999997 0 0 .99999997 34.86625 16.670029)" font-size="10" font-family="ArialMT"><tspan y="10" x="1 6.546875 12.09375 17.640625 23.1875">e_pos</tspan></text>
</g>
</g>
<clipPath id="cp21">
<path transform="matrix(.24,0,0,.24,-110.96,-179.74997)" d="M 476.75 755.9167 L 2739.25 755.9167 L 2739.25 1710.0834 L 476.75 1710.0834 L 476.75 755.9167 Z " fill-rule="evenodd"/>
</clipPath>
<g clip-path="url(#cp21)">
<path transform="matrix(.24,0,0,.24,-110.96,-179.74997)" d="M 2635.0833 1010.0833 L 2701.75 1010.0833 C 2717.8585 1010.0833 2730.9168 1023.14169 2730.9168 1039.25 C 2730.9168 1055.3583 2717.8585 1068.4166 2701.75 1068.4166 L 2635.0833 1068.4166 C 2618.975 1068.4166 2605.9168 1055.3583 2605.9168 1039.25 C 2605.9168 1023.14169 2618.975 1010.0833 2635.0833 1010.0833 Z " fill="#ffffff"/>
</g>
<clipPath id="cp22">
<path transform="matrix(.24,0,0,.24,-110.96,-179.74997)" d="M 476.75 755.9167 L 2739.25 755.9167 L 2739.25 1710.0834 L 476.75 1710.0834 L 476.75 755.9167 Z " fill-rule="evenodd"/>
</clipPath>
<g clip-path="url(#cp22)">
<clipPath id="cp23">
<path transform="matrix(.24,0,0,.24,-110.96,-179.74997)" d="M 2605.9168 1010.0833 L 2730.9168 1010.0833 L 2730.9168 1068.4166 L 2605.9168 1068.4166 L 2605.9168 1010.0833 Z " fill-rule="evenodd"/>
</clipPath>
<g clip-path="url(#cp23)">
<text xml:space="preserve" transform="matrix(.99999997 0 0 .99999997 529.45999 69.67003)" font-size="10" font-family="ArialMT"><tspan y="3.5" x="-2.765625">1</tspan></text>
</g>
</g>
<clipPath id="cp24">
<path transform="matrix(.24,0,0,.24,-110.96,-179.74997)" d="M 476.75 755.9167 L 2739.25 755.9167 L 2739.25 1710.0834 L 476.75 1710.0834 L 476.75 755.9167 Z " fill-rule="evenodd"/>
</clipPath>
<g clip-path="url(#cp24)">
<path transform="matrix(.99999997,0,0,.99999997,514.45999,62.670015)" stroke-width=".5650469" stroke-linecap="butt" stroke-miterlimit="2" stroke-linejoin="miter" fill="none" stroke="#000000" d="M 7 0 L 23 0 C 26.865994 0 30 3.1340068 30 7 C 30 10.8659939 26.865994 14 23 14 L 7 14 C 3.1340068 14 0 10.8659939 0 7 C 0 3.1340068 3.1340068 0 7 0 Z "/>
</g>
<clipPath id="cp25">
<path transform="matrix(.24,0,0,.24,-110.96,-179.74997)" d="M 476.75 755.9167 L 2739.25 755.9167 L 2739.25 1710.0834 L 476.75 1710.0834 L 476.75 755.9167 Z " fill-rule="evenodd"/>
</clipPath>
<g clip-path="url(#cp25)">
<clipPath id="cp26">
<path transform="matrix(.24,0,0,.24,-110.96,-179.74997)" d="M 2633.0325 1076.75 L 2703.8009 1076.75 L 2703.8009 1135.0834 L 2633.0325 1135.0834 L 2633.0325 1076.75 Z " fill-rule="evenodd"/>
</clipPath>
<g clip-path="url(#cp26)">
<text xml:space="preserve" transform="matrix(.99999997 0 0 .99999997 520.9678 78.67001)" font-size="10" font-family="ArialMT"><tspan y="10" x="1 9.328125">MV</tspan></text>
</g>
</g>
<clipPath id="cp27">
<path transform="matrix(.24,0,0,.24,-110.96,-179.74997)" d="M 476.75 755.9167 L 2739.25 755.9167 L 2739.25 1710.0834 L 476.75 1710.0834 L 476.75 755.9167 Z " fill-rule="evenodd"/>
</clipPath>
<g clip-path="url(#cp27)">
<path transform="matrix(.99999997,0,0,.99999997,104.459987,181.67002)" d="M 0 0 L 20 0 L 20 16 L 0 16 Z " fill="#ffffff"/>
</g>
<clipPath id="cp28">
<path transform="matrix(.24,0,0,.24,-110.96,-179.74997)" d="M 476.75 755.9167 L 2739.25 755.9167 L 2739.25 1710.0834 L 476.75 1710.0834 L 476.75 755.9167 Z " fill-rule="evenodd"/>
</clipPath>
<g clip-path="url(#cp28)">
<clipPath id="cp29">
<path transform="matrix(.24,0,0,.24,-110.96,-179.74997)" d="M 897.5833 1505.9166 L 985.0833 1505.9166 L 985.0833 1576.75 L 897.5833 1576.75 L 897.5833 1505.9166 Z " fill-rule="evenodd"/>
</clipPath>
<g clip-path="url(#cp29)">
</g>
</g>
<clipPath id="cp30">
<path transform="matrix(.24,0,0,.24,-110.96,-179.74997)" d="M 476.75 755.9167 L 2739.25 755.9167 L 2739.25 1710.0834 L 476.75 1710.0834 L 476.75 755.9167 Z " fill-rule="evenodd"/>
</clipPath>
<g clip-path="url(#cp30)">
</g>
<clipPath id="cp31">
<path transform="matrix(.24,0,0,.24,-110.96,-179.74997)" d="M 476.75 755.9167 L 2739.25 755.9167 L 2739.25 1710.0834 L 476.75 1710.0834 L 476.75 755.9167 Z " fill-rule="evenodd"/>
</clipPath>
<g clip-path="url(#cp31)">
<clipPath id="cp32">
<path transform="matrix(.24,0,0,.24,-110.96,-179.74997)" d="M 897.5833 1505.9166 L 985.0833 1505.9166 L 985.0833 1576.75 L 897.5833 1576.75 L 897.5833 1505.9166 Z " fill-rule="evenodd"/>
</clipPath>
<g clip-path="url(#cp32)">
</g>
</g>
<clipPath id="cp33">
<path transform="matrix(.24,0,0,.24,-110.96,-179.74997)" d="M 476.75 755.9167 L 2739.25 755.9167 L 2739.25 1710.0834 L 476.75 1710.0834 L 476.75 755.9167 Z " fill-rule="evenodd"/>
</clipPath>
<g clip-path="url(#cp33)">
<clipPath id="cp34">
<path transform="matrix(.24,0,0,.24,-110.96,-179.74997)" d="M 897.5833 1505.9166 L 985.0833 1505.9166 L 985.0833 1576.75 L 897.5833 1576.75 L 897.5833 1505.9166 Z " fill-rule="evenodd"/>
</clipPath>
<g clip-path="url(#cp34)">
<clipPath id="cp35">
<path transform="matrix(.24,0,0,.24,-110.96,-179.74997)" d="M 872.5829 1472.5829 L 955.91629 1472.5829 L 955.91629 1539.2496 L 872.5829 1539.2496 L 872.5829 1472.5829 Z " fill-rule="evenodd"/>
</clipPath>
<g clip-path="url(#cp35)">
</g>
</g>
</g>
<clipPath id="cp36">
<path transform="matrix(.24,0,0,.24,-110.96,-179.74997)" d="M 868.4167 1468.4166 L 1010.0833 1468.4166 L 1010.0833 1610.0834 L 868.4167 1610.0834 L 868.4167 1468.4166 Z " fill-rule="evenodd"/>
</clipPath>
<g clip-path="url(#cp36)">
</g>
<clipPath id="cp37">
<path transform="matrix(.24,0,0,.24,-110.96,-179.74997)" d="M 868.4167 1468.4166 L 1010.0833 1468.4166 L 1010.0833 1610.0834 L 868.4167 1610.0834 L 868.4167 1468.4166 Z " fill-rule="evenodd"/>
</clipPath>
<g clip-path="url(#cp37)">
<clipPath id="cp38">
<path transform="matrix(.24,0,0,.24,-110.96,-179.74997)" d="M 872.5829 1472.5829 L 1014.2496 1472.5829 L 1014.2496 1614.2496 L 872.5829 1614.2496 L 872.5829 1472.5829 Z " fill-rule="evenodd"/>
</clipPath>
<g clip-path="url(#cp38)">
</g>
</g>
<clipPath id="cp39">
<path transform="matrix(.24,0,0,.24,-110.96,-179.74997)" d="M 868.4167 1468.4166 L 1010.0833 1468.4166 L 1010.0833 1610.0834 L 868.4167 1610.0834 L 868.4167 1468.4166 Z " fill-rule="evenodd"/>
</clipPath>
<g clip-path="url(#cp39)">
<clipPath id="cp40">
<path transform="matrix(.24,0,0,.24,-110.96,-179.74997)" d="M 872.5829 1472.5829 L 1014.2496 1472.5829 L 1014.2496 1614.2496 L 872.5829 1614.2496 L 872.5829 1472.5829 Z " fill-rule="evenodd"/>
</clipPath>
<g clip-path="url(#cp40)">
<clipPath id="cp41">
<path transform="matrix(.24,0,0,.24,-110.96,-179.74997)" d="M 872.5829 1472.5829 L 1014.2496 1472.5829 L 1014.2496 1614.2496 L 872.5829 1614.2496 L 872.5829 1472.5829 Z " fill-rule="evenodd"/>
</clipPath>
<g clip-path="url(#cp41)">
<path transform="matrix(.24,0,0,.24,-110.96,-179.74997)" d="M 929.41928 1535.2787 C 929.41928 1531.7631 929.77737 1528.931 930.49349 1526.7826 C 931.20968 1524.6342 932.2839 1522.974 933.7161 1521.8021 C 935.14846 1520.6303 936.94967 1520.0443 939.1198 1520.0443 C 940.7257 1520.0443 942.1254 1520.3698 943.31906 1521.0209 C 944.5126 1521.6719 945.51089 1522.605 946.3138 1523.8203 C 947.11679 1525.0357 947.7352 1526.5112 948.16928 1528.2474 C 948.6033 1529.9835 948.8203 1532.3273 948.8203 1535.2787 C 948.8203 1538.7943 948.4622 1541.6264 947.7461 1543.7748 C 947.02999 1545.9232 945.95578 1547.5834 944.52346 1548.7553 C 943.0911 1549.9271 941.2899 1550.5131 939.1198 1550.5131 C 936.2552 1550.5131 933.9983 1549.4713 932.34896 1547.3881 C 930.3958 1544.9141 929.41928 1540.8776 929.41928 1535.2787 Z M 933.1302 1535.2787 C 933.1302 1540.1831 933.7053 1543.4492 934.85549 1545.0768 C 936.0056 1546.7045 937.42709 1547.5182 939.1198 1547.5182 C 940.8125 1547.5182 942.23397 1546.7045 943.3841 1545.0768 C 944.5343 1543.4492 945.1094 1540.1831 945.1094 1535.2787 C 945.1094 1530.3742 944.5343 1527.1189 943.3841 1525.5131 C 942.23397 1523.9071 940.7908 1523.1041 939.0547 1523.1041 C 937.4054 1523.1041 936.0599 1523.7986 935.01828 1525.1875 C 933.7595 1527.0104 933.1302 1530.3742 933.1302 1535.2787 Z "/>
</g>
</g>
</g>
<clipPath id="cp42">
<path transform="matrix(.24,0,0,.24,-110.96,-179.74997)" d="M 868.4167 1468.4166 L 1010.0833 1468.4166 L 1010.0833 1610.0834 L 868.4167 1610.0834 L 868.4167 1468.4166 Z " fill-rule="evenodd"/>
</clipPath>
<g clip-path="url(#cp42)">
</g>
<clipPath id="cp43">
<path transform="matrix(.24,0,0,.24,-110.96,-179.74997)" d="M 868.4167 1468.4166 L 1010.0833 1468.4166 L 1010.0833 1610.0834 L 868.4167 1610.0834 L 868.4167 1468.4166 Z " fill-rule="evenodd"/>
</clipPath>
<g clip-path="url(#cp43)">
<clipPath id="cp44">
<path transform="matrix(.24,0,0,.24,-110.96,-179.74997)" d="M 872.5829 1472.5829 L 1014.2496 1472.5829 L 1014.2496 1614.2496 L 872.5829 1614.2496 L 872.5829 1472.5829 Z " fill-rule="evenodd"/>
</clipPath>
<g clip-path="url(#cp44)">
</g>
</g>
<clipPath id="cp45">
<path transform="matrix(.24,0,0,.24,-110.96,-179.74997)" d="M 868.4167 1468.4166 L 1010.0833 1468.4166 L 1010.0833 1610.0834 L 868.4167 1610.0834 L 868.4167 1468.4166 Z " fill-rule="evenodd"/>
</clipPath>
<g clip-path="url(#cp45)">
<clipPath id="cp46">
<path transform="matrix(.24,0,0,.24,-110.96,-179.74997)" d="M 872.5829 1472.5829 L 1014.2496 1472.5829 L 1014.2496 1614.2496 L 872.5829 1614.2496 L 872.5829 1472.5829 Z " fill-rule="evenodd"/>
</clipPath>
<g clip-path="url(#cp46)">
<clipPath id="cp47">
<path transform="matrix(.24,0,0,.24,-110.96,-179.74997)" d="M 872.5829 1472.5829 L 1014.2496 1472.5829 L 1014.2496 1614.2496 L 872.5829 1614.2496 L 872.5829 1472.5829 Z " fill-rule="evenodd"/>
</clipPath>
<g clip-path="url(#cp47)">
</g>
</g>
</g>
<clipPath id="cp48">
<path transform="matrix(.24,0,0,.24,-110.96,-179.74997)" d="M 868.4167 1468.4166 L 1010.0833 1468.4166 L 1010.0833 1610.0834 L 868.4167 1610.0834 L 868.4167 1468.4166 Z " fill-rule="evenodd"/>
</clipPath>
<g clip-path="url(#cp48)">
</g>
<clipPath id="cp49">
<path transform="matrix(.24,0,0,.24,-110.96,-179.74997)" d="M 868.4167 1468.4166 L 1010.0833 1468.4166 L 1010.0833 1610.0834 L 868.4167 1610.0834 L 868.4167 1468.4166 Z " fill-rule="evenodd"/>
</clipPath>
<g clip-path="url(#cp49)">
<clipPath id="cp50">
<path transform="matrix(.24,0,0,.24,-110.96,-179.74997)" d="M 872.5829 1472.5829 L 1014.2496 1472.5829 L 1014.2496 1614.2496 L 872.5829 1614.2496 L 872.5829 1472.5829 Z " fill-rule="evenodd"/>
</clipPath>
<g clip-path="url(#cp50)">
</g>
</g>
<clipPath id="cp51">
<path transform="matrix(.24,0,0,.24,-110.96,-179.74997)" d="M 868.4167 1468.4166 L 1010.0833 1468.4166 L 1010.0833 1610.0834 L 868.4167 1610.0834 L 868.4167 1468.4166 Z " fill-rule="evenodd"/>
</clipPath>
<g clip-path="url(#cp51)">
</g>
<clipPath id="cp52">
<path transform="matrix(.24,0,0,.24,-110.96,-179.74997)" d="M 476.75 755.9167 L 2739.25 755.9167 L 2739.25 1710.0834 L 476.75 1710.0834 L 476.75 755.9167 Z " fill-rule="evenodd"/>
</clipPath>
<g clip-path="url(#cp52)">
</g>
<clipPath id="cp53">
<path transform="matrix(.24,0,0,.24,-110.96,-179.74997)" d="M 476.75 755.9167 L 2739.25 755.9167 L 2739.25 1710.0834 L 476.75 1710.0834 L 476.75 755.9167 Z " fill-rule="evenodd"/>
</clipPath>
<g clip-path="url(#cp53)">
<clipPath id="cp54">
<path transform="matrix(.24,0,0,.24,-110.96,-179.74997)" d="M 897.5833 1505.9166 L 985.0833 1505.9166 L 985.0833 1576.75 L 897.5833 1576.75 L 897.5833 1505.9166 Z " fill-rule="evenodd"/>
</clipPath>
<g clip-path="url(#cp54)">
</g>
</g>
<clipPath id="cp55">
<path transform="matrix(.24,0,0,.24,-110.96,-179.74997)" d="M 476.75 755.9167 L 2739.25 755.9167 L 2739.25 1710.0834 L 476.75 1710.0834 L 476.75 755.9167 Z " fill-rule="evenodd"/>
</clipPath>
<g clip-path="url(#cp55)">
</g>
<clipPath id="cp56">
<path transform="matrix(.24,0,0,.24,-110.96,-179.74997)" d="M 476.75 755.9167 L 2739.25 755.9167 L 2739.25 1710.0834 L 476.75 1710.0834 L 476.75 755.9167 Z " fill-rule="evenodd"/>
</clipPath>
<g clip-path="url(#cp56)">
<clipPath id="cp57">
<path transform="matrix(.24,0,0,.24,-110.96,-179.74997)" d="M 897.5833 1505.9166 L 980.9167 1505.9166 L 980.9167 1572.5834 L 897.5833 1572.5834 L 897.5833 1505.9166 Z " fill-rule="evenodd"/>
</clipPath>
<g clip-path="url(#cp57)">
</g>
</g>
<clipPath id="cp58">
<path transform="matrix(.24,0,0,.24,-110.96,-179.74997)" d="M 476.75 755.9167 L 2739.25 755.9167 L 2739.25 1710.0834 L 476.75 1710.0834 L 476.75 755.9167 Z " fill-rule="evenodd"/>
</clipPath>
<g clip-path="url(#cp58)">
<path transform="matrix(.99999997,0,0,.99999997,104.459987,181.67002)" stroke-width=".5650469" stroke-linecap="butt" stroke-miterlimit="2" stroke-linejoin="miter" fill="none" stroke="#000000" d="M 0 0 L 20 0 L 20 16 L 0 16 Z "/>
<path transform="matrix(.24,0,0,.24,-110.96,-179.74997)" d="M 876.75 1255.9166 L 1001.75 1255.9166 L 1001.75 1385.0834 L 876.75 1385.0834 L 876.75 1255.9166 Z " fill="#ffffff"/>
</g>
<clipPath id="cp59">
<path transform="matrix(.24,0,0,.24,-110.96,-179.74997)" d="M 476.75 755.9167 L 2739.25 755.9167 L 2739.25 1710.0834 L 476.75 1710.0834 L 476.75 755.9167 Z " fill-rule="evenodd"/>
</clipPath>
<g clip-path="url(#cp59)">
<clipPath id="cp60">
<path transform="matrix(.24,0,0,.24,-110.96,-179.74997)" d="M 876.75 1255.9166 L 1001.75 1255.9166 L 1001.75 1385.0834 L 876.75 1385.0834 L 876.75 1255.9166 Z " fill-rule="evenodd"/>
</clipPath>
<g clip-path="url(#cp60)">
<text xml:space="preserve" transform="matrix(.99999997 0 0 .99999997 104.459987 129.67002)" font-size="10" font-family="ArialMT"><tspan y="3.5" x="-2.90625">+</tspan></text>
<text xml:space="preserve" transform="matrix(.99999997 0 0 .99999997 104.459987 144.67002)" font-size="10" font-family="ArialMT"><tspan y="3.5" x="-2.90625">&#x2212;</tspan></text>
</g>
</g>
<clipPath id="cp61">
<path transform="matrix(.24,0,0,.24,-110.96,-179.74997)" d="M 476.75 755.9167 L 2739.25 755.9167 L 2739.25 1710.0834 L 476.75 1710.0834 L 476.75 755.9167 Z " fill-rule="evenodd"/>
</clipPath>
<g clip-path="url(#cp61)">
<path transform="matrix(.99999997,0,0,.99999997,99.46,121.67001)" stroke-width=".5650469" stroke-linecap="butt" stroke-miterlimit="2" stroke-linejoin="miter" fill="none" stroke="#000000" d="M 0 0 L 30 0 L 30 31 L 0 31 L 0 0 Z "/>
<path transform="matrix(.24,0,0,.24,-110.96,-179.74997)" d="M 635.0833 1405.9166 L 701.75 1405.9166 C 717.8583 1405.9166 730.9167 1418.975 730.9167 1435.0834 C 730.9167 1451.1917 717.8583 1464.25 701.75 1464.25 L 635.0833 1464.25 C 618.97506 1464.25 605.9167 1451.1917 605.9167 1435.0834 C 605.9167 1418.975 618.97506 1405.9166 635.0833 1405.9166 Z " fill="#ffffff"/>
</g>
<clipPath id="cp62">
<path transform="matrix(.24,0,0,.24,-110.96,-179.74997)" d="M 476.75 755.9167 L 2739.25 755.9167 L 2739.25 1710.0834 L 476.75 1710.0834 L 476.75 755.9167 Z " fill-rule="evenodd"/>
</clipPath>
<g clip-path="url(#cp62)">
<clipPath id="cp63">
<path transform="matrix(.24,0,0,.24,-110.96,-179.74997)" d="M 605.9167 1405.9166 L 730.9167 1405.9166 L 730.9167 1464.25 L 605.9167 1464.25 L 605.9167 1405.9166 Z " fill-rule="evenodd"/>
</clipPath>
<g clip-path="url(#cp63)">
<text xml:space="preserve" transform="matrix(.99999997 0 0 .99999997 49.46 164.67005)" font-size="10" font-family="ArialMT"><tspan y="3.5" x="-2.765625">2</tspan></text>
</g>
</g>
<clipPath id="cp64">
<path transform="matrix(.24,0,0,.24,-110.96,-179.74997)" d="M 476.75 755.9167 L 2739.25 755.9167 L 2739.25 1710.0834 L 476.75 1710.0834 L 476.75 755.9167 Z " fill-rule="evenodd"/>
</clipPath>
<g clip-path="url(#cp64)">
<path transform="matrix(.99999997,0,0,.99999997,34.46,157.67002)" stroke-width=".5650469" stroke-linecap="butt" stroke-miterlimit="2" stroke-linejoin="miter" fill="none" stroke="#000000" d="M 7 0 L 23 0 C 26.865994 0 30 3.1340068 30 7 C 30 10.8659939 26.865994 14 23 14 L 7 14 C 3.1340068 14 0 10.8659939 0 7 C 0 3.1340068 3.1340068 0 7 0 Z "/>
</g>
<clipPath id="cp65">
<path transform="matrix(.24,0,0,.24,-110.96,-179.74997)" d="M 476.75 755.9167 L 2739.25 755.9167 L 2739.25 1710.0834 L 476.75 1710.0834 L 476.75 755.9167 Z " fill-rule="evenodd"/>
</clipPath>
<g clip-path="url(#cp65)">
<clipPath id="cp66">
<path transform="matrix(.24,0,0,.24,-110.96,-179.74997)" d="M 607.6094 1472.5834 L 729.22396 1472.5834 L 729.22396 1530.9166 L 607.6094 1530.9166 L 607.6094 1472.5834 Z " fill-rule="evenodd"/>
</clipPath>
<g clip-path="url(#cp66)">
<text xml:space="preserve" transform="matrix(.99999997 0 0 .99999997 34.86625 173.67005)" font-size="10" font-family="ArialMT"><tspan y="10" x="1 7.09375 14.3125 19.859375">TR_M</tspan></text>
</g>
</g>
<clipPath id="cp67">
<path transform="matrix(.24,0,0,.24,-110.96,-179.74997)" d="M 476.75 755.9167 L 2739.25 755.9167 L 2739.25 1710.0834 L 476.75 1710.0834 L 476.75 755.9167 Z " fill-rule="evenodd"/>
</clipPath>
<g clip-path="url(#cp67)">
<path transform="matrix(.24,0,0,.24,-110.96,-179.74997)" d="M 2272.5833 960.0833 L 2397.5833 960.0833 L 2397.5833 1097.5834 L 2272.5833 1097.5834 L 2272.5833 960.0833 Z " fill="#ffffff"/>
</g>
<clipPath id="cp68">
<path transform="matrix(.24,0,0,.24,-110.96,-179.74997)" d="M 476.75 755.9167 L 2739.25 755.9167 L 2739.25 1710.0834 L 476.75 1710.0834 L 476.75 755.9167 Z " fill-rule="evenodd"/>
</clipPath>
<g clip-path="url(#cp68)">
<clipPath id="cp69">
<path transform="matrix(.24,0,0,.24,-110.96,-179.74997)" d="M 2272.5833 960.0833 L 2397.5833 960.0833 L 2397.5833 1097.5834 L 2272.5833 1097.5834 L 2272.5833 960.0833 Z " fill-rule="evenodd"/>
</clipPath>
<g clip-path="url(#cp69)">
<text xml:space="preserve" transform="matrix(.99999997 0 0 .99999997 439.46 59.670015)" font-size="10" font-family="ArialMT"><tspan y="3.5" x="-2.90625">+</tspan></text>
<text xml:space="preserve" transform="matrix(.99999997 0 0 .99999997 439.46 74.67003)" font-size="10" font-family="ArialMT"><tspan y="3.5" x="-2.90625">+</tspan></text>
</g>
</g>
<clipPath id="cp70">
<path transform="matrix(.24,0,0,.24,-110.96,-179.74997)" d="M 476.75 755.9167 L 2739.25 755.9167 L 2739.25 1710.0834 L 476.75 1710.0834 L 476.75 755.9167 Z " fill-rule="evenodd"/>
</clipPath>
<g clip-path="url(#cp70)">
<path transform="matrix(.99999997,0,0,.99999997,434.46,50.670015)" stroke-width=".5650469" stroke-linecap="butt" stroke-miterlimit="2" stroke-linejoin="miter" fill="none" stroke="#000000" d="M 0 0 L 30 0 L 30 33 L 0 33 L 0 0 Z "/>
<path transform="matrix(.99999997,0,0,.99999997,374.46003,59.670015)" d="M 0 0 L 30 0 L 30 30 L 0 30 Z " fill="#ffffff"/>
</g>
<clipPath id="cp71">
<path transform="matrix(.24,0,0,.24,-110.96,-179.74997)" d="M 476.75 755.9167 L 2739.25 755.9167 L 2739.25 1710.0834 L 476.75 1710.0834 L 476.75 755.9167 Z " fill-rule="evenodd"/>
</clipPath>
<g clip-path="url(#cp71)">
<clipPath id="cp72">
<path transform="matrix(.24,0,0,.24,-110.96,-179.74997)" d="M 2022.5834 997.5833 L 2151.75 997.5833 L 2151.75 1126.75 L 2022.5834 1126.75 L 2022.5834 997.5833 Z " fill-rule="evenodd"/>
</clipPath>
<g clip-path="url(#cp72)">
</g>
</g>
<clipPath id="cp73">
<path transform="matrix(.24,0,0,.24,-110.96,-179.74997)" d="M 476.75 755.9167 L 2739.25 755.9167 L 2739.25 1710.0834 L 476.75 1710.0834 L 476.75 755.9167 Z " fill-rule="evenodd"/>
</clipPath>
<g clip-path="url(#cp73)">
</g>
<clipPath id="cp74">
<path transform="matrix(.24,0,0,.24,-110.96,-179.74997)" d="M 476.75 755.9167 L 2739.25 755.9167 L 2739.25 1710.0834 L 476.75 1710.0834 L 476.75 755.9167 Z " fill-rule="evenodd"/>
</clipPath>
<g clip-path="url(#cp74)">
<clipPath id="cp75">
<path transform="matrix(.24,0,0,.24,-110.96,-179.74997)" d="M 2022.5834 997.5833 L 2151.75 997.5833 L 2151.75 1126.75 L 2022.5834 1126.75 L 2022.5834 997.5833 Z " fill-rule="evenodd"/>
</clipPath>
<g clip-path="url(#cp75)">
</g>
</g>
<clipPath id="cp76">
<path transform="matrix(.24,0,0,.24,-110.96,-179.74997)" d="M 476.75 755.9167 L 2739.25 755.9167 L 2739.25 1710.0834 L 476.75 1710.0834 L 476.75 755.9167 Z " fill-rule="evenodd"/>
</clipPath>
<g clip-path="url(#cp76)">
<clipPath id="cp77">
<path transform="matrix(.24,0,0,.24,-110.96,-179.74997)" d="M 2022.5834 997.5833 L 2151.75 997.5833 L 2151.75 1126.75 L 2022.5834 1126.75 L 2022.5834 997.5833 Z " fill-rule="evenodd"/>
</clipPath>
<g clip-path="url(#cp77)">
<clipPath id="cp78">
<path transform="matrix(.24,0,0,.24,-110.96,-179.74997)" d="M 2018.4163 993.41629 L 2143.4163 993.41629 L 2143.4163 1118.4163 L 2018.4163 1118.4163 L 2018.4163 993.41629 Z " fill-rule="evenodd"/>
</clipPath>
<g clip-path="url(#cp78)">
</g>
</g>
</g>
<clipPath id="cp79">
<path transform="matrix(.24,0,0,.24,-110.96,-179.74997)" d="M 2014.25 989.25 L 2155.9168 989.25 L 2155.9168 1130.9166 L 2014.25 1130.9166 L 2014.25 989.25 Z " fill-rule="evenodd"/>
</clipPath>
<g clip-path="url(#cp79)">
</g>
<clipPath id="cp80">
<path transform="matrix(.24,0,0,.24,-110.96,-179.74997)" d="M 2014.25 989.25 L 2155.9168 989.25 L 2155.9168 1130.9166 L 2014.25 1130.9166 L 2014.25 989.25 Z " fill-rule="evenodd"/>
</clipPath>
<g clip-path="url(#cp80)">
<clipPath id="cp81">
<path transform="matrix(.24,0,0,.24,-110.96,-179.74997)" d="M 2018.4163 993.41629 L 2160.083 993.41629 L 2160.083 1135.0829 L 2018.4163 1135.0829 L 2018.4163 993.41629 Z " fill-rule="evenodd"/>
</clipPath>
<g clip-path="url(#cp81)">
</g>
</g>
<clipPath id="cp82">
<path transform="matrix(.24,0,0,.24,-110.96,-179.74997)" d="M 2014.25 989.25 L 2155.9168 989.25 L 2155.9168 1130.9166 L 2014.25 1130.9166 L 2014.25 989.25 Z " fill-rule="evenodd"/>
</clipPath>
<g clip-path="url(#cp82)">
<clipPath id="cp83">
<path transform="matrix(.24,0,0,.24,-110.96,-179.74997)" d="M 2018.4163 993.41629 L 2160.083 993.41629 L 2160.083 1135.0829 L 2018.4163 1135.0829 L 2018.4163 993.41629 Z " fill-rule="evenodd"/>
</clipPath>
<g clip-path="url(#cp83)">
<clipPath id="cp84">
<path transform="matrix(.24,0,0,.24,-110.96,-179.74997)" d="M 2018.4163 993.41629 L 2160.083 993.41629 L 2160.083 1135.0829 L 2018.4163 1135.0829 L 2018.4163 993.41629 Z " fill-rule="evenodd"/>
</clipPath>
<g clip-path="url(#cp84)">
</g>
</g>
</g>
<clipPath id="cp85">
<path transform="matrix(.24,0,0,.24,-110.96,-179.74997)" d="M 2014.25 989.25 L 2155.9168 989.25 L 2155.9168 1130.9166 L 2014.25 1130.9166 L 2014.25 989.25 Z " fill-rule="evenodd"/>
</clipPath>
<g clip-path="url(#cp85)">
<clipPath id="cp86">
<path transform="matrix(.24,0,0,.24,-110.96,-179.74997)" d="M 2018.4163 993.41629 L 2160.083 993.41629 L 2160.083 1135.0829 L 2018.4163 1135.0829 L 2018.4163 993.41629 Z " fill-rule="evenodd"/>
</clipPath>
<g clip-path="url(#cp86)">
<clipPath id="cp87">
<path transform="matrix(.24,0,0,.24,-110.96,-179.74997)" d="M 2018.4163 993.41629 L 2160.083 993.41629 L 2160.083 1135.0829 L 2018.4163 1135.0829 L 2018.4163 993.41629 Z " fill-rule="evenodd"/>
</clipPath>
<g clip-path="url(#cp87)">
<clipPath id="cp88">
<path transform="matrix(.24,0,0,.24,-110.96,-179.74997)" d="M 2069.1458 1005.1875 L 2101.0208 1005.1875 L 2101.0208 1114.9791 L 2069.1458 1114.9791 L 2069.1458 1005.1875 Z " fill-rule="evenodd"/>
</clipPath>
<g clip-path="url(#cp88)">
<path transform="matrix(.24,0,0,.24,-110.96,-179.74997)" d="M 2072.6876 1058.3125 L 2097.4793 1058.3125 L 2097.4793 1061.8541 L 2072.6876 1061.8541 L 2072.6876 1058.3125 Z " fill-rule="evenodd"/>
<path transform="matrix(.24,0,0,.24,-110.96,-179.74997)" d="M 2090.8387 1044.1459 L 2090.8387 1043.4818 C 2087.3524 1043.4818 2086.4669 1042.6517 2086.4669 1040.6596 L 2086.4669 1013.15628 L 2086.0242 1013.0456 L 2077.7786 1017.196 L 2077.7786 1017.86007 L 2079.0516 1017.4173 C 2079.8817 1017.08529 2080.6563 1016.86398 2081.0989 1016.86398 C 2082.095 1016.86398 2082.4825 1017.528 2082.4825 1019.07748 L 2082.4825 1039.774 C 2082.4825 1042.3197 2081.5418 1043.2604 2078.1107 1043.4818 L 2078.1107 1044.1459 L 2090.8387 1044.1459 Z "/>
<path transform="matrix(.24,0,0,.24,-110.96,-179.74997)" d="M 2091.2259 1080.4479 L 2090.5618 1080.4479 C 2090.1746 1081.1119 2089.8426 1081.278 2089.1785 1081.278 C 2088.791 1081.278 2088.4036 1081.2227 2087.5184 1080.9459 C 2086.3563 1080.6693 2085.7474 1080.5033 2084.9173 1080.5033 C 2081.5418 1080.5033 2079.3836 1082.4401 2079.3836 1085.4838 C 2079.3836 1086.9779 2080.2689 1089.0254 2082.261 1091.5156 C 2084.0872 1093.7846 2084.862 1095.334 2084.862 1096.8281 C 2084.862 1099.0416 2083.534 1100.3698 2081.3204 1100.3698 C 2078.9407 1100.3698 2077.3914 1098.4883 2076.7274 1094.1166 L 2076.0079 1094.1166 L 2075.0672 1101.4213 L 2075.8419 1101.4213 C 2076.1185 1100.7018 2076.6719 1100.4252 2077.17 1100.4252 C 2077.668 1100.4252 2078.332 1100.4805 2079.162 1100.8678 C 2080.2689 1101.2553 2080.9329 1101.3106 2081.7078 1101.3106 C 2085.5262 1101.3106 2088.3485 1098.9863 2088.3485 1095.168 C 2088.3485 1093.3418 2087.5184 1091.5709 2085.194 1088.9147 C 2083.423 1086.7565 2082.7039 1085.4284 2082.7039 1084.2109 C 2082.7039 1082.4955 2083.8106 1081.5547 2085.4708 1081.5547 C 2087.6844 1081.5547 2089.0677 1083.1041 2089.5657 1086.9225 L 2090.2852 1086.9225 L 2091.2259 1080.4479 Z "/>
</g>
</g>
</g>
</g>
<clipPath id="cp89">
<path transform="matrix(.24,0,0,.24,-110.96,-179.74997)" d="M 2014.25 989.25 L 2155.9168 989.25 L 2155.9168 1130.9166 L 2014.25 1130.9166 L 2014.25 989.25 Z " fill-rule="evenodd"/>
</clipPath>
<g clip-path="url(#cp89)">
</g>
<clipPath id="cp90">
<path transform="matrix(.24,0,0,.24,-110.96,-179.74997)" d="M 2014.25 989.25 L 2155.9168 989.25 L 2155.9168 1130.9166 L 2014.25 1130.9166 L 2014.25 989.25 Z " fill-rule="evenodd"/>
</clipPath>
<g clip-path="url(#cp90)">
<clipPath id="cp91">
<path transform="matrix(.24,0,0,.24,-110.96,-179.74997)" d="M 2018.4163 993.41629 L 2160.083 993.41629 L 2160.083 1135.0829 L 2018.4163 1135.0829 L 2018.4163 993.41629 Z " fill-rule="evenodd"/>
</clipPath>
<g clip-path="url(#cp91)">
</g>
</g>
<clipPath id="cp92">
<path transform="matrix(.24,0,0,.24,-110.96,-179.74997)" d="M 2014.25 989.25 L 2155.9168 989.25 L 2155.9168 1130.9166 L 2014.25 1130.9166 L 2014.25 989.25 Z " fill-rule="evenodd"/>
</clipPath>
<g clip-path="url(#cp92)">
<clipPath id="cp93">
<path transform="matrix(.24,0,0,.24,-110.96,-179.74997)" d="M 2018.4163 993.41629 L 2160.083 993.41629 L 2160.083 1135.0829 L 2018.4163 1135.0829 L 2018.4163 993.41629 Z " fill-rule="evenodd"/>
</clipPath>
<g clip-path="url(#cp93)">
<clipPath id="cp94">
<path transform="matrix(.24,0,0,.24,-110.96,-179.74997)" d="M 2018.4163 993.41629 L 2160.083 993.41629 L 2160.083 1135.0829 L 2018.4163 1135.0829 L 2018.4163 993.41629 Z " fill-rule="evenodd"/>
</clipPath>
<g clip-path="url(#cp94)">
</g>
</g>
</g>
<clipPath id="cp95">
<path transform="matrix(.24,0,0,.24,-110.96,-179.74997)" d="M 2014.25 989.25 L 2155.9168 989.25 L 2155.9168 1130.9166 L 2014.25 1130.9166 L 2014.25 989.25 Z " fill-rule="evenodd"/>
</clipPath>
<g clip-path="url(#cp95)">
</g>
<clipPath id="cp96">
<path transform="matrix(.24,0,0,.24,-110.96,-179.74997)" d="M 2014.25 989.25 L 2155.9168 989.25 L 2155.9168 1130.9166 L 2014.25 1130.9166 L 2014.25 989.25 Z " fill-rule="evenodd"/>
</clipPath>
<g clip-path="url(#cp96)">
<clipPath id="cp97">
<path transform="matrix(.24,0,0,.24,-110.96,-179.74997)" d="M 2018.4163 993.41629 L 2160.083 993.41629 L 2160.083 1135.0829 L 2018.4163 1135.0829 L 2018.4163 993.41629 Z " fill-rule="evenodd"/>
</clipPath>
<g clip-path="url(#cp97)">
</g>
</g>
<clipPath id="cp98">
<path transform="matrix(.24,0,0,.24,-110.96,-179.74997)" d="M 2014.25 989.25 L 2155.9168 989.25 L 2155.9168 1130.9166 L 2014.25 1130.9166 L 2014.25 989.25 Z " fill-rule="evenodd"/>
</clipPath>
<g clip-path="url(#cp98)">
<clipPath id="cp99">
<path transform="matrix(.24,0,0,.24,-110.96,-179.74997)" d="M 2018.4163 993.41629 L 2160.083 993.41629 L 2160.083 1135.0829 L 2018.4163 1135.0829 L 2018.4163 993.41629 Z " fill-rule="evenodd"/>
</clipPath>
<g clip-path="url(#cp99)">
<clipPath id="cp100">
<path transform="matrix(.24,0,0,.24,-110.96,-179.74997)" d="M 2018.4163 993.41629 L 2160.083 993.41629 L 2160.083 1135.0829 L 2018.4163 1135.0829 L 2018.4163 993.41629 Z " fill-rule="evenodd"/>
</clipPath>
<g clip-path="url(#cp100)">
</g>
</g>
</g>
<clipPath id="cp101">
<path transform="matrix(.24,0,0,.24,-110.96,-179.74997)" d="M 2014.25 989.25 L 2155.9168 989.25 L 2155.9168 1130.9166 L 2014.25 1130.9166 L 2014.25 989.25 Z " fill-rule="evenodd"/>
</clipPath>
<g clip-path="url(#cp101)">
</g>
<clipPath id="cp102">
<path transform="matrix(.24,0,0,.24,-110.96,-179.74997)" d="M 2014.25 989.25 L 2155.9168 989.25 L 2155.9168 1130.9166 L 2014.25 1130.9166 L 2014.25 989.25 Z " fill-rule="evenodd"/>
</clipPath>
<g clip-path="url(#cp102)">
<clipPath id="cp103">
<path transform="matrix(.24,0,0,.24,-110.96,-179.74997)" d="M 2018.4163 993.41629 L 2160.083 993.41629 L 2160.083 1135.0829 L 2018.4163 1135.0829 L 2018.4163 993.41629 Z " fill-rule="evenodd"/>
</clipPath>
<g clip-path="url(#cp103)">
</g>
</g>
<clipPath id="cp104">
<path transform="matrix(.24,0,0,.24,-110.96,-179.74997)" d="M 2014.25 989.25 L 2155.9168 989.25 L 2155.9168 1130.9166 L 2014.25 1130.9166 L 2014.25 989.25 Z " fill-rule="evenodd"/>
</clipPath>
<g clip-path="url(#cp104)">
</g>
<clipPath id="cp105">
<path transform="matrix(.24,0,0,.24,-110.96,-179.74997)" d="M 476.75 755.9167 L 2739.25 755.9167 L 2739.25 1710.0834 L 476.75 1710.0834 L 476.75 755.9167 Z " fill-rule="evenodd"/>
</clipPath>
<g clip-path="url(#cp105)">
</g>
<clipPath id="cp106">
<path transform="matrix(.24,0,0,.24,-110.96,-179.74997)" d="M 476.75 755.9167 L 2739.25 755.9167 L 2739.25 1710.0834 L 476.75 1710.0834 L 476.75 755.9167 Z " fill-rule="evenodd"/>
</clipPath>
<g clip-path="url(#cp106)">
<clipPath id="cp107">
<path transform="matrix(.24,0,0,.24,-110.96,-179.74997)" d="M 2022.5834 997.5833 L 2151.75 997.5833 L 2151.75 1126.75 L 2022.5834 1126.75 L 2022.5834 997.5833 Z " fill-rule="evenodd"/>
</clipPath>
<g clip-path="url(#cp107)">
</g>
</g>
<clipPath id="cp108">
<path transform="matrix(.24,0,0,.24,-110.96,-179.74997)" d="M 476.75 755.9167 L 2739.25 755.9167 L 2739.25 1710.0834 L 476.75 1710.0834 L 476.75 755.9167 Z " fill-rule="evenodd"/>
</clipPath>
<g clip-path="url(#cp108)">
</g>
<clipPath id="cp109">
<path transform="matrix(.24,0,0,.24,-110.96,-179.74997)" d="M 476.75 755.9167 L 2739.25 755.9167 L 2739.25 1710.0834 L 476.75 1710.0834 L 476.75 755.9167 Z " fill-rule="evenodd"/>
</clipPath>
<g clip-path="url(#cp109)">
<clipPath id="cp110">
<path transform="matrix(.24,0,0,.24,-110.96,-179.74997)" d="M 2022.5834 997.5833 L 2147.5833 997.5833 L 2147.5833 1122.5834 L 2022.5834 1122.5834 L 2022.5834 997.5833 Z " fill-rule="evenodd"/>
</clipPath>
<g clip-path="url(#cp110)">
</g>
</g>
<clipPath id="cp111">
<path transform="matrix(.24,0,0,.24,-110.96,-179.74997)" d="M 476.75 755.9167 L 2739.25 755.9167 L 2739.25 1710.0834 L 476.75 1710.0834 L 476.75 755.9167 Z " fill-rule="evenodd"/>
</clipPath>
<g clip-path="url(#cp111)">
<path transform="matrix(.99999997,0,0,.99999997,374.46003,59.670015)" stroke-width=".5650469" stroke-linecap="butt" stroke-miterlimit="2" stroke-linejoin="miter" fill="none" stroke="#000000" d="M 0 0 L 30 0 L 30 30 L 0 30 Z "/>
<path transform="matrix(.24,0,0,.24,-110.96,-179.74997)" d="M 1772.5834 985.0833 L 1897.5834 985.0833 L 1897.5834 1114.25 L 1772.5834 1114.25 L 1772.5834 985.0833 Z " fill="#ffffff"/>
</g>
<clipPath id="cp112">
<path transform="matrix(.24,0,0,.24,-110.96,-179.74997)" d="M 476.75 755.9167 L 2739.25 755.9167 L 2739.25 1710.0834 L 476.75 1710.0834 L 476.75 755.9167 Z " fill-rule="evenodd"/>
</clipPath>
<g clip-path="url(#cp112)">
<clipPath id="cp113">
<path transform="matrix(.24,0,0,.24,-110.96,-179.74997)" d="M 1772.5834 985.0833 L 1897.5834 985.0833 L 1897.5834 1114.25 L 1772.5834 1114.25 L 1772.5834 985.0833 Z " fill-rule="evenodd"/>
</clipPath>
<g clip-path="url(#cp113)">
<text xml:space="preserve" transform="matrix(.99999997 0 0 .99999997 319.46 64.67003)" font-size="10" font-family="ArialMT"><tspan y="3.5" x="-2.90625">+</tspan></text>
<text xml:space="preserve" transform="matrix(.99999997 0 0 .99999997 319.46 79.67001)" font-size="10" font-family="ArialMT"><tspan y="3.5" x="-2.90625">+</tspan></text>
</g>
</g>
<clipPath id="cp114">
<path transform="matrix(.24,0,0,.24,-110.96,-179.74997)" d="M 476.75 755.9167 L 2739.25 755.9167 L 2739.25 1710.0834 L 476.75 1710.0834 L 476.75 755.9167 Z " fill-rule="evenodd"/>
</clipPath>
<g clip-path="url(#cp114)">
<path transform="matrix(.99999997,0,0,.99999997,314.46003,56.670015)" stroke-width=".5650469" stroke-linecap="butt" stroke-miterlimit="2" stroke-linejoin="miter" fill="none" stroke="#000000" d="M 0 0 L 30 0 L 30 31 L 0 31 L 0 0 Z "/>
<path transform="matrix(.24,0,0,.24,-110.96,-179.74997)" d="M 1147.5834 960.0833 L 1418.4166 1018.4167 L 1147.5834 1076.75 L 1147.5834 960.0833 Z " fill="#ffffff"/>
</g>
<clipPath id="cp115">
<path transform="matrix(.24,0,0,.24,-110.96,-179.74997)" d="M 476.75 755.9167 L 2739.25 755.9167 L 2739.25 1710.0834 L 476.75 1710.0834 L 476.75 755.9167 Z " fill-rule="evenodd"/>
</clipPath>
<g clip-path="url(#cp115)">
<clipPath id="cp116">
<path transform="matrix(.24,0,0,.24,-110.96,-179.74997)" d="M 1147.5834 960.0833 L 1418.4166 960.0833 L 1418.4166 1076.75 L 1147.5834 1076.75 L 1147.5834 960.0833 Z " fill-rule="evenodd"/>
</clipPath>
<g clip-path="url(#cp116)">
</g>
</g>
<clipPath id="cp117">
<path transform="matrix(.24,0,0,.24,-110.96,-179.74997)" d="M 476.75 755.9167 L 2739.25 755.9167 L 2739.25 1710.0834 L 476.75 1710.0834 L 476.75 755.9167 Z " fill-rule="evenodd"/>
</clipPath>
<g clip-path="url(#cp117)">
</g>
<clipPath id="cp118">
<path transform="matrix(.24,0,0,.24,-110.96,-179.74997)" d="M 476.75 755.9167 L 2739.25 755.9167 L 2739.25 1710.0834 L 476.75 1710.0834 L 476.75 755.9167 Z " fill-rule="evenodd"/>
</clipPath>
<g clip-path="url(#cp118)">
<clipPath id="cp119">
<path transform="matrix(.24,0,0,.24,-110.96,-179.74997)" d="M 1147.5834 960.0833 L 1418.4166 1018.4167 L 1147.5834 1076.75 L 1147.5834 960.0833 Z "/>
</clipPath>
<g clip-path="url(#cp119)">
</g>
</g>
<clipPath id="cp120">
<path transform="matrix(.24,0,0,.24,-110.96,-179.74997)" d="M 476.75 755.9167 L 2739.25 755.9167 L 2739.25 1710.0834 L 476.75 1710.0834 L 476.75 755.9167 Z " fill-rule="evenodd"/>
</clipPath>
<g clip-path="url(#cp120)">
<clipPath id="cp121">
<path transform="matrix(.24,0,0,.24,-110.96,-179.74997)" d="M 1147.5834 960.0833 L 1418.4166 1018.4167 L 1147.5834 1076.75 L 1147.5834 960.0833 Z "/>
</clipPath>
<g clip-path="url(#cp121)">
<clipPath id="cp122">
<path transform="matrix(.24,0,0,.24,-110.96,-179.74997)" d="M 1176.7496 951.7496 L 1447.5829 951.7496 L 1447.5829 1068.4163 L 1176.7496 1068.4163 L 1176.7496 951.7496 Z " fill-rule="evenodd"/>
</clipPath>
<g clip-path="url(#cp122)">
</g>
</g>
</g>
<clipPath id="cp123">
<path transform="matrix(.24,0,0,.24,-110.96,-179.74997)" d="M 1193.4166 947.5833 L 1372.5834 947.5833 L 1372.5834 1089.25 L 1193.4166 1089.25 L 1193.4166 947.5833 Z " fill-rule="evenodd"/>
</clipPath>
<g clip-path="url(#cp123)">
</g>
<clipPath id="cp124">
<path transform="matrix(.24,0,0,.24,-110.96,-179.74997)" d="M 1193.4166 947.5833 L 1372.5834 947.5833 L 1372.5834 1089.25 L 1193.4166 1089.25 L 1193.4166 947.5833 Z " fill-rule="evenodd"/>
</clipPath>
<g clip-path="url(#cp124)">
<clipPath id="cp125">
<path transform="matrix(.24,0,0,.24,-110.96,-179.74997)" d="M 1176.7496 951.7496 L 1355.9163 951.7496 L 1355.9163 1093.4163 L 1176.7496 1093.4163 L 1176.7496 951.7496 Z " fill-rule="evenodd"/>
</clipPath>
<g clip-path="url(#cp125)">
</g>
</g>
<clipPath id="cp126">
<path transform="matrix(.24,0,0,.24,-110.96,-179.74997)" d="M 1193.4166 947.5833 L 1372.5834 947.5833 L 1372.5834 1089.25 L 1193.4166 1089.25 L 1193.4166 947.5833 Z " fill-rule="evenodd"/>
</clipPath>
<g clip-path="url(#cp126)">
<clipPath id="cp127">
<path transform="matrix(.24,0,0,.24,-110.96,-179.74997)" d="M 1176.7496 951.7496 L 1355.9163 951.7496 L 1355.9163 1093.4163 L 1176.7496 1093.4163 L 1176.7496 951.7496 Z " fill-rule="evenodd"/>
</clipPath>
<g clip-path="url(#cp127)">
<clipPath id="cp128">
<path transform="matrix(.24,0,0,.24,-110.96,-179.74997)" d="M 1176.7496 951.7496 L 1355.9163 951.7496 L 1355.9163 1093.4163 L 1176.7496 1093.4163 L 1176.7496 951.7496 Z " fill-rule="evenodd"/>
</clipPath>
<g clip-path="url(#cp128)">
<path transform="matrix(.24,0,0,.24,-110.96,-179.74997)" d="M 1196.9125 1032.9674 L 1196.9125 1003.1497 L 1200.8839 1003.1497 L 1200.8839 1017.9284 L 1215.6625 1003.1497 L 1221.0011 1003.1497 L 1208.5011 1015.19406 L 1221.587 1032.9674 L 1216.3787 1032.9674 L 1205.7667 1017.8633 L 1200.8839 1022.6159 L 1200.8839 1032.9674 L 1196.9125 1032.9674 Z M 1224.3865 1007.38156 L 1224.3865 1003.1497 L 1228.0324 1003.1497 L 1228.0324 1007.38156 L 1224.3865 1007.38156 Z M 1224.3865 1032.9674 L 1224.3865 1011.35287 L 1228.0324 1011.35287 L 1228.0324 1032.9674 L 1224.3865 1032.9674 Z M 1230.1808 1041.2357 L 1230.1808 1038.6315 L 1254.4646 1038.6315 L 1254.4646 1041.2357 L 1230.1808 1041.2357 Z M 1256.6781 1041.2357 L 1256.6781 1011.35287 L 1259.9984 1011.35287 L 1259.9984 1014.15237 C 1260.8231 1013.06729 1261.7238 1012.2535 1262.7003 1011.71096 C 1263.6769 1011.1684 1264.8812 1010.89718 1266.3136 1010.89718 C 1268.1365 1010.89718 1269.7532 1011.3637 1271.1638 1012.2969 C 1272.5745 1013.23007 1273.6378 1014.5647 1274.3539 1016.3008 C 1275.0701 1018.03689 1275.4281 1019.9466 1275.4281 1022.02999 C 1275.4281 1024.2001 1275.0375 1026.1749 1274.2562 1027.9545 C 1273.475 1029.7339 1272.3248 1031.1011 1270.8058 1032.056 C 1269.2866 1033.0109 1267.7024 1033.4883 1266.0531 1033.4883 C 1264.8379 1033.4883 1263.742 1033.2279 1262.7654 1032.707 C 1261.7888 1032.1862 1260.975 1031.5352 1260.324 1030.7539 L 1260.324 1041.2357 L 1256.6781 1041.2357 Z M 1259.9984 1022.29037 C 1259.9984 1025.0681 1260.5628 1027.1189 1261.6912 1028.4428 C 1262.8196 1029.7665 1264.1869 1030.4284 1265.7927 1030.4284 C 1267.3987 1030.4284 1268.7875 1029.7448 1269.9594 1028.3776 C 1271.1312 1027.0104 1271.7172 1024.8728 1271.7172 1021.96487 C 1271.7172 1019.23049 1271.153 1017.1797 1270.0245 1015.8125 C 1268.896 1014.4453 1267.5288 1013.7617 1265.923 1013.7617 C 1264.3605 1013.7617 1262.9824 1014.4887 1261.7888 1015.9427 C 1260.5952 1017.3967 1259.9984 1019.5126 1259.9984 1022.29037 Z "/>
</g>
</g>
</g>
<clipPath id="cp129">
<path transform="matrix(.24,0,0,.24,-110.96,-179.74997)" d="M 1193.4166 947.5833 L 1372.5834 947.5833 L 1372.5834 1089.25 L 1193.4166 1089.25 L 1193.4166 947.5833 Z " fill-rule="evenodd"/>
</clipPath>
<g clip-path="url(#cp129)">
</g>
<clipPath id="cp130">
<path transform="matrix(.24,0,0,.24,-110.96,-179.74997)" d="M 1193.4166 947.5833 L 1372.5834 947.5833 L 1372.5834 1089.25 L 1193.4166 1089.25 L 1193.4166 947.5833 Z " fill-rule="evenodd"/>
</clipPath>
<g clip-path="url(#cp130)">
<clipPath id="cp131">
<path transform="matrix(.24,0,0,.24,-110.96,-179.74997)" d="M 1176.7496 951.7496 L 1355.9163 951.7496 L 1355.9163 1093.4163 L 1176.7496 1093.4163 L 1176.7496 951.7496 Z " fill-rule="evenodd"/>
</clipPath>
<g clip-path="url(#cp131)">
</g>
</g>
<clipPath id="cp132">
<path transform="matrix(.24,0,0,.24,-110.96,-179.74997)" d="M 1193.4166 947.5833 L 1372.5834 947.5833 L 1372.5834 1089.25 L 1193.4166 1089.25 L 1193.4166 947.5833 Z " fill-rule="evenodd"/>
</clipPath>
<g clip-path="url(#cp132)">
<clipPath id="cp133">
<path transform="matrix(.24,0,0,.24,-110.96,-179.74997)" d="M 1176.7496 951.7496 L 1355.9163 951.7496 L 1355.9163 1093.4163 L 1176.7496 1093.4163 L 1176.7496 951.7496 Z " fill-rule="evenodd"/>
</clipPath>
<g clip-path="url(#cp133)">
<clipPath id="cp134">
<path transform="matrix(.24,0,0,.24,-110.96,-179.74997)" d="M 1176.7496 951.7496 L 1355.9163 951.7496 L 1355.9163 1093.4163 L 1176.7496 1093.4163 L 1176.7496 951.7496 Z " fill-rule="evenodd"/>
</clipPath>
<g clip-path="url(#cp134)">
</g>
</g>
</g>
<clipPath id="cp135">
<path transform="matrix(.24,0,0,.24,-110.96,-179.74997)" d="M 1193.4166 947.5833 L 1372.5834 947.5833 L 1372.5834 1089.25 L 1193.4166 1089.25 L 1193.4166 947.5833 Z " fill-rule="evenodd"/>
</clipPath>
<g clip-path="url(#cp135)">
</g>
<clipPath id="cp136">
<path transform="matrix(.24,0,0,.24,-110.96,-179.74997)" d="M 1193.4166 947.5833 L 1372.5834 947.5833 L 1372.5834 1089.25 L 1193.4166 1089.25 L 1193.4166 947.5833 Z " fill-rule="evenodd"/>
</clipPath>
<g clip-path="url(#cp136)">
<clipPath id="cp137">
<path transform="matrix(.24,0,0,.24,-110.96,-179.74997)" d="M 1176.7496 951.7496 L 1355.9163 951.7496 L 1355.9163 1093.4163 L 1176.7496 1093.4163 L 1176.7496 951.7496 Z " fill-rule="evenodd"/>
</clipPath>
<g clip-path="url(#cp137)">
</g>
</g>
<clipPath id="cp138">
<path transform="matrix(.24,0,0,.24,-110.96,-179.74997)" d="M 1193.4166 947.5833 L 1372.5834 947.5833 L 1372.5834 1089.25 L 1193.4166 1089.25 L 1193.4166 947.5833 Z " fill-rule="evenodd"/>
</clipPath>
<g clip-path="url(#cp138)">
</g>
<clipPath id="cp139">
<path transform="matrix(.24,0,0,.24,-110.96,-179.74997)" d="M 476.75 755.9167 L 2739.25 755.9167 L 2739.25 1710.0834 L 476.75 1710.0834 L 476.75 755.9167 Z " fill-rule="evenodd"/>
</clipPath>
<g clip-path="url(#cp139)">
</g>
<clipPath id="cp140">
<path transform="matrix(.24,0,0,.24,-110.96,-179.74997)" d="M 476.75 755.9167 L 2739.25 755.9167 L 2739.25 1710.0834 L 476.75 1710.0834 L 476.75 755.9167 Z " fill-rule="evenodd"/>
</clipPath>
<g clip-path="url(#cp140)">
<clipPath id="cp141">
<path transform="matrix(.24,0,0,.24,-110.96,-179.74997)" d="M 1147.5834 960.0833 L 1418.4166 1018.4167 L 1147.5834 1076.75 L 1147.5834 960.0833 Z "/>
</clipPath>
<g clip-path="url(#cp141)">
</g>
</g>
<clipPath id="cp142">
<path transform="matrix(.24,0,0,.24,-110.96,-179.74997)" d="M 476.75 755.9167 L 2739.25 755.9167 L 2739.25 1710.0834 L 476.75 1710.0834 L 476.75 755.9167 Z " fill-rule="evenodd"/>
</clipPath>
<g clip-path="url(#cp142)">
</g>
<clipPath id="cp143">
<path transform="matrix(.24,0,0,.24,-110.96,-179.74997)" d="M 476.75 755.9167 L 2739.25 755.9167 L 2739.25 1710.0834 L 476.75 1710.0834 L 476.75 755.9167 Z " fill-rule="evenodd"/>
</clipPath>
<g clip-path="url(#cp143)">
<clipPath id="cp144">
<path transform="matrix(.24,0,0,.24,-110.96,-179.74997)" d="M 1147.5834 960.0833 L 1418.4166 960.0833 L 1418.4166 1076.75 L 1147.5834 1076.75 L 1147.5834 960.0833 Z " fill-rule="evenodd"/>
</clipPath>
<g clip-path="url(#cp144)">
</g>
</g>
<clipPath id="cp145">
<path transform="matrix(.24,0,0,.24,-110.96,-179.74997)" d="M 476.75 755.9167 L 2739.25 755.9167 L 2739.25 1710.0834 L 476.75 1710.0834 L 476.75 755.9167 Z " fill-rule="evenodd"/>
</clipPath>
<g clip-path="url(#cp145)">
<path transform="matrix(.99999997,0,0,.99999997,164.46002,50.670015)" stroke-width=".5650469" stroke-linecap="butt" stroke-miterlimit="2" stroke-linejoin="miter" fill="none" stroke="#000000" d="M 0 0 L 65 14 L 0 28 L 0 0 Z "/>
<path transform="matrix(.24,0,0,.24,-110.96,-179.74997)" d="M 1147.5834 764.25 L 1418.4166 830.9167 L 1147.5834 897.5833 L 1147.5834 764.25 Z " fill="#ffffff"/>
</g>
<clipPath id="cp146">
<path transform="matrix(.24,0,0,.24,-110.96,-179.74997)" d="M 476.75 755.9167 L 2739.25 755.9167 L 2739.25 1710.0834 L 476.75 1710.0834 L 476.75 755.9167 Z " fill-rule="evenodd"/>
</clipPath>
<g clip-path="url(#cp146)">
<clipPath id="cp147">
<path transform="matrix(.24,0,0,.24,-110.96,-179.74997)" d="M 1147.5834 764.25 L 1418.4166 764.25 L 1418.4166 897.5833 L 1147.5834 897.5833 L 1147.5834 764.25 Z " fill-rule="evenodd"/>
</clipPath>
<g clip-path="url(#cp147)">
</g>
</g>
<clipPath id="cp148">
<path transform="matrix(.24,0,0,.24,-110.96,-179.74997)" d="M 476.75 755.9167 L 2739.25 755.9167 L 2739.25 1710.0834 L 476.75 1710.0834 L 476.75 755.9167 Z " fill-rule="evenodd"/>
</clipPath>
<g clip-path="url(#cp148)">
</g>
<clipPath id="cp149">
<path transform="matrix(.24,0,0,.24,-110.96,-179.74997)" d="M 476.75 755.9167 L 2739.25 755.9167 L 2739.25 1710.0834 L 476.75 1710.0834 L 476.75 755.9167 Z " fill-rule="evenodd"/>
</clipPath>
<g clip-path="url(#cp149)">
<clipPath id="cp150">
<path transform="matrix(.24,0,0,.24,-110.96,-179.74997)" d="M 1147.5834 764.25 L 1418.4166 830.9167 L 1147.5834 897.5833 L 1147.5834 764.25 Z "/>
</clipPath>
<g clip-path="url(#cp150)">
</g>
</g>
<clipPath id="cp151">
<path transform="matrix(.24,0,0,.24,-110.96,-179.74997)" d="M 476.75 755.9167 L 2739.25 755.9167 L 2739.25 1710.0834 L 476.75 1710.0834 L 476.75 755.9167 Z " fill-rule="evenodd"/>
</clipPath>
<g clip-path="url(#cp151)">
<clipPath id="cp152">
<path transform="matrix(.24,0,0,.24,-110.96,-179.74997)" d="M 1147.5834 764.25 L 1418.4166 830.9167 L 1147.5834 897.5833 L 1147.5834 764.25 Z "/>
</clipPath>
<g clip-path="url(#cp152)">
<clipPath id="cp153">
<path transform="matrix(.24,0,0,.24,-110.96,-179.74997)" d="M 1176.7496 764.2496 L 1447.5829 764.2496 L 1447.5829 897.5829 L 1176.7496 897.5829 L 1176.7496 764.2496 Z " fill-rule="evenodd"/>
</clipPath>
<g clip-path="url(#cp153)">
</g>
</g>
</g>
<clipPath id="cp154">
<path transform="matrix(.24,0,0,.24,-110.96,-179.74997)" d="M 1193.4166 760.0833 L 1372.5834 760.0833 L 1372.5834 901.75 L 1193.4166 901.75 L 1193.4166 760.0833 Z " fill-rule="evenodd"/>
</clipPath>
<g clip-path="url(#cp154)">
</g>
<clipPath id="cp155">
<path transform="matrix(.24,0,0,.24,-110.96,-179.74997)" d="M 1193.4166 760.0833 L 1372.5834 760.0833 L 1372.5834 901.75 L 1193.4166 901.75 L 1193.4166 760.0833 Z " fill-rule="evenodd"/>
</clipPath>
<g clip-path="url(#cp155)">
<clipPath id="cp156">
<path transform="matrix(.24,0,0,.24,-110.96,-179.74997)" d="M 1176.7496 764.2496 L 1355.9163 764.2496 L 1355.9163 905.91629 L 1176.7496 905.91629 L 1176.7496 764.2496 Z " fill-rule="evenodd"/>
</clipPath>
<g clip-path="url(#cp156)">
</g>
</g>
<clipPath id="cp157">
<path transform="matrix(.24,0,0,.24,-110.96,-179.74997)" d="M 1193.4166 760.0833 L 1372.5834 760.0833 L 1372.5834 901.75 L 1193.4166 901.75 L 1193.4166 760.0833 Z " fill-rule="evenodd"/>
</clipPath>
<g clip-path="url(#cp157)">
<clipPath id="cp158">
<path transform="matrix(.24,0,0,.24,-110.96,-179.74997)" d="M 1176.7496 764.2496 L 1355.9163 764.2496 L 1355.9163 905.91629 L 1176.7496 905.91629 L 1176.7496 764.2496 Z " fill-rule="evenodd"/>
</clipPath>
<g clip-path="url(#cp158)">
<clipPath id="cp159">
<path transform="matrix(.24,0,0,.24,-110.96,-179.74997)" d="M 1176.7496 764.2496 L 1355.9163 764.2496 L 1355.9163 905.91629 L 1176.7496 905.91629 L 1176.7496 764.2496 Z " fill-rule="evenodd"/>
</clipPath>
<g clip-path="url(#cp159)">
<path transform="matrix(.24,0,0,.24,-110.96,-179.74997)" d="M 1196.6709 845.46749 L 1196.6709 815.6497 L 1200.6422 815.6497 L 1200.6422 830.4284 L 1215.4209 815.6497 L 1220.7594 815.6497 L 1208.2594 827.69406 L 1221.3453 845.46749 L 1216.137 845.46749 L 1205.525 830.3633 L 1200.6422 835.1159 L 1200.6422 845.46749 L 1196.6709 845.46749 Z M 1224.0797 853.73568 L 1224.0797 823.85287 L 1227.4 823.85287 L 1227.4 826.65237 C 1228.2246 825.56729 1229.1253 824.7535 1230.1018 824.21096 C 1231.0784 823.6684 1232.2828 823.39718 1233.7151 823.39718 C 1235.5381 823.39718 1237.1548 823.8637 1238.5654 824.7969 C 1239.976 825.73007 1241.0393 827.0647 1241.7555 828.8008 C 1242.4717 830.53689 1242.8297 832.4466 1242.8297 834.52999 C 1242.8297 836.7001 1242.4391 838.6749 1241.6578 840.4544 C 1240.8766 842.23397 1239.7265 843.60116 1238.2073 844.55599 C 1236.6882 845.51089 1235.104 845.9883 1233.4547 845.9883 C 1232.2394 845.9883 1231.1436 845.72787 1230.167 845.20706 C 1229.1904 844.6862 1228.3766 844.03518 1227.7256 843.2539 L 1227.7256 853.73568 L 1224.0797 853.73568 Z M 1227.4 834.79037 C 1227.4 837.5681 1227.9642 839.6189 1229.0928 840.9427 C 1230.2212 842.2665 1231.5884 842.9284 1233.1943 842.9284 C 1234.8002 842.9284 1236.1891 842.2448 1237.361 840.8776 C 1238.5328 839.51046 1239.1188 837.3728 1239.1188 834.46487 C 1239.1188 831.73049 1238.5546 829.6797 1237.426 828.3125 C 1236.2976 826.9453 1234.9304 826.2617 1233.3245 826.2617 C 1231.762 826.2617 1230.3839 826.9887 1229.1904 828.4427 C 1227.9968 829.8967 1227.4 832.0126 1227.4 834.79037 Z M 1243.8063 853.73568 L 1243.8063 851.13156 L 1268.0901 851.13156 L 1268.0901 853.73568 L 1243.8063 853.73568 Z M 1270.3037 853.73568 L 1270.3037 823.85287 L 1273.624 823.85287 L 1273.624 826.65237 C 1274.4486 825.56729 1275.3493 824.7535 1276.3258 824.21096 C 1277.3024 823.6684 1278.5068 823.39718 1279.9391 823.39718 C 1281.762 823.39718 1283.3788 823.8637 1284.7893 824.7969 C 1286.2 825.73007 1287.2633 827.0647 1287.9795 828.8008 C 1288.6956 830.53689 1289.0537 832.4466 1289.0537 834.52999 C 1289.0537 836.7001 1288.6631 838.6749 1287.8818 840.4544 C 1287.1006 842.23397 1285.9503 843.60116 1284.4313 844.55599 C 1282.9121 845.51089 1281.328 845.9883 1279.6787 845.9883 C 1278.4634 845.9883 1277.3674 845.72787 1276.3909 845.20706 C 1275.4143 844.6862 1274.6006 844.03518 1273.9495 843.2539 L 1273.9495 853.73568 L 1270.3037 853.73568 Z M 1273.624 834.79037 C 1273.624 837.5681 1274.1882 839.6189 1275.3167 840.9427 C 1276.4452 842.2665 1277.8124 842.9284 1279.4182 842.9284 C 1281.0242 842.9284 1282.4131 842.2448 1283.585 840.8776 C 1284.7568 839.51046 1285.3428 837.3728 1285.3428 834.46487 C 1285.3428 831.73049 1284.7785 829.6797 1283.65 828.3125 C 1282.5216 826.9453 1281.1544 826.2617 1279.5485 826.2617 C 1277.986 826.2617 1276.6079 826.9887 1275.4143 828.4427 C 1274.2208 829.8967 1273.624 832.0126 1273.624 834.79037 Z "/>
</g>
</g>
</g>
<clipPath id="cp160">
<path transform="matrix(.24,0,0,.24,-110.96,-179.74997)" d="M 1193.4166 760.0833 L 1372.5834 760.0833 L 1372.5834 901.75 L 1193.4166 901.75 L 1193.4166 760.0833 Z " fill-rule="evenodd"/>
</clipPath>
<g clip-path="url(#cp160)">
</g>
<clipPath id="cp161">
<path transform="matrix(.24,0,0,.24,-110.96,-179.74997)" d="M 1193.4166 760.0833 L 1372.5834 760.0833 L 1372.5834 901.75 L 1193.4166 901.75 L 1193.4166 760.0833 Z " fill-rule="evenodd"/>
</clipPath>
<g clip-path="url(#cp161)">
<clipPath id="cp162">
<path transform="matrix(.24,0,0,.24,-110.96,-179.74997)" d="M 1176.7496 764.2496 L 1355.9163 764.2496 L 1355.9163 905.91629 L 1176.7496 905.91629 L 1176.7496 764.2496 Z " fill-rule="evenodd"/>
</clipPath>
<g clip-path="url(#cp162)">
</g>
</g>
<clipPath id="cp163">
<path transform="matrix(.24,0,0,.24,-110.96,-179.74997)" d="M 1193.4166 760.0833 L 1372.5834 760.0833 L 1372.5834 901.75 L 1193.4166 901.75 L 1193.4166 760.0833 Z " fill-rule="evenodd"/>
</clipPath>
<g clip-path="url(#cp163)">
<clipPath id="cp164">
<path transform="matrix(.24,0,0,.24,-110.96,-179.74997)" d="M 1176.7496 764.2496 L 1355.9163 764.2496 L 1355.9163 905.91629 L 1176.7496 905.91629 L 1176.7496 764.2496 Z " fill-rule="evenodd"/>
</clipPath>
<g clip-path="url(#cp164)">
<clipPath id="cp165">
<path transform="matrix(.24,0,0,.24,-110.96,-179.74997)" d="M 1176.7496 764.2496 L 1355.9163 764.2496 L 1355.9163 905.91629 L 1176.7496 905.91629 L 1176.7496 764.2496 Z " fill-rule="evenodd"/>
</clipPath>
<g clip-path="url(#cp165)">
</g>
</g>
</g>
<clipPath id="cp166">
<path transform="matrix(.24,0,0,.24,-110.96,-179.74997)" d="M 1193.4166 760.0833 L 1372.5834 760.0833 L 1372.5834 901.75 L 1193.4166 901.75 L 1193.4166 760.0833 Z " fill-rule="evenodd"/>
</clipPath>
<g clip-path="url(#cp166)">
</g>
<clipPath id="cp167">
<path transform="matrix(.24,0,0,.24,-110.96,-179.74997)" d="M 1193.4166 760.0833 L 1372.5834 760.0833 L 1372.5834 901.75 L 1193.4166 901.75 L 1193.4166 760.0833 Z " fill-rule="evenodd"/>
</clipPath>
<g clip-path="url(#cp167)">
<clipPath id="cp168">
<path transform="matrix(.24,0,0,.24,-110.96,-179.74997)" d="M 1176.7496 764.2496 L 1355.9163 764.2496 L 1355.9163 905.91629 L 1176.7496 905.91629 L 1176.7496 764.2496 Z " fill-rule="evenodd"/>
</clipPath>
<g clip-path="url(#cp168)">
</g>
</g>
<clipPath id="cp169">
<path transform="matrix(.24,0,0,.24,-110.96,-179.74997)" d="M 1193.4166 760.0833 L 1372.5834 760.0833 L 1372.5834 901.75 L 1193.4166 901.75 L 1193.4166 760.0833 Z " fill-rule="evenodd"/>
</clipPath>
<g clip-path="url(#cp169)">
</g>
<clipPath id="cp170">
<path transform="matrix(.24,0,0,.24,-110.96,-179.74997)" d="M 476.75 755.9167 L 2739.25 755.9167 L 2739.25 1710.0834 L 476.75 1710.0834 L 476.75 755.9167 Z " fill-rule="evenodd"/>
</clipPath>
<g clip-path="url(#cp170)">
</g>
<clipPath id="cp171">
<path transform="matrix(.24,0,0,.24,-110.96,-179.74997)" d="M 476.75 755.9167 L 2739.25 755.9167 L 2739.25 1710.0834 L 476.75 1710.0834 L 476.75 755.9167 Z " fill-rule="evenodd"/>
</clipPath>
<g clip-path="url(#cp171)">
<clipPath id="cp172">
<path transform="matrix(.24,0,0,.24,-110.96,-179.74997)" d="M 1147.5834 764.25 L 1418.4166 830.9167 L 1147.5834 897.5833 L 1147.5834 764.25 Z "/>
</clipPath>
<g clip-path="url(#cp172)">
</g>
</g>
<clipPath id="cp173">
<path transform="matrix(.24,0,0,.24,-110.96,-179.74997)" d="M 476.75 755.9167 L 2739.25 755.9167 L 2739.25 1710.0834 L 476.75 1710.0834 L 476.75 755.9167 Z " fill-rule="evenodd"/>
</clipPath>
<g clip-path="url(#cp173)">
</g>
<clipPath id="cp174">
<path transform="matrix(.24,0,0,.24,-110.96,-179.74997)" d="M 476.75 755.9167 L 2739.25 755.9167 L 2739.25 1710.0834 L 476.75 1710.0834 L 476.75 755.9167 Z " fill-rule="evenodd"/>
</clipPath>
<g clip-path="url(#cp174)">
<clipPath id="cp175">
<path transform="matrix(.24,0,0,.24,-110.96,-179.74997)" d="M 1147.5834 764.25 L 1418.4166 764.25 L 1418.4166 897.5833 L 1147.5834 897.5833 L 1147.5834 764.25 Z " fill-rule="evenodd"/>
</clipPath>
<g clip-path="url(#cp175)">
</g>
</g>
<clipPath id="cp176">
<path transform="matrix(.24,0,0,.24,-110.96,-179.74997)" d="M 476.75 755.9167 L 2739.25 755.9167 L 2739.25 1710.0834 L 476.75 1710.0834 L 476.75 755.9167 Z " fill-rule="evenodd"/>
</clipPath>
<g clip-path="url(#cp176)">
<path transform="matrix(.99999997,0,0,.99999997,164.46002,3.6700288)" stroke-width=".5650469" stroke-linecap="butt" stroke-miterlimit="2" stroke-linejoin="miter" fill="none" stroke="#000000" d="M 0 0 L 65 16 L 0 32 L 0 0 Z "/>
<path transform="matrix(.24,0,0,.24,-110.96,-179.74997)" d="M 635.0833 1260.0834 L 701.75 1260.0834 C 717.8583 1260.0834 730.9167 1273.1417 730.9167 1289.25 C 730.9167 1305.3583 717.8583 1318.4166 701.75 1318.4166 L 635.0833 1318.4166 C 618.97506 1318.4166 605.9167 1305.3583 605.9167 1289.25 C 605.9167 1273.1417 618.97506 1260.0834 635.0833 1260.0834 Z " fill="#ffffff"/>
</g>
<clipPath id="cp177">
<path transform="matrix(.24,0,0,.24,-110.96,-179.74997)" d="M 476.75 755.9167 L 2739.25 755.9167 L 2739.25 1710.0834 L 476.75 1710.0834 L 476.75 755.9167 Z " fill-rule="evenodd"/>
</clipPath>
<g clip-path="url(#cp177)">
<clipPath id="cp178">
<path transform="matrix(.24,0,0,.24,-110.96,-179.74997)" d="M 605.9167 1260.0834 L 730.9167 1260.0834 L 730.9167 1318.4166 L 605.9167 1318.4166 L 605.9167 1260.0834 Z " fill-rule="evenodd"/>
</clipPath>
<g clip-path="url(#cp178)">
<text xml:space="preserve" transform="matrix(.99999997 0 0 .99999997 49.46 129.67002)" font-size="10" font-family="ArialMT"><tspan y="3.5" x="-2.765625">3</tspan></text>
</g>
</g>
<clipPath id="cp179">
<path transform="matrix(.24,0,0,.24,-110.96,-179.74997)" d="M 476.75 755.9167 L 2739.25 755.9167 L 2739.25 1710.0834 L 476.75 1710.0834 L 476.75 755.9167 Z " fill-rule="evenodd"/>
</clipPath>
<g clip-path="url(#cp179)">
<path transform="matrix(.99999997,0,0,.99999997,34.46,122.670047)" stroke-width=".5650469" stroke-linecap="butt" stroke-miterlimit="2" stroke-linejoin="miter" fill="none" stroke="#000000" d="M 7 0 L 23 0 C 26.865994 0 30 3.1340068 30 7 C 30 10.8659939 26.865994 14 23 14 L 7 14 C 3.1340068 14 0 10.8659939 0 7 C 0 3.1340068 3.1340068 0 7 0 Z "/>
</g>
<clipPath id="cp180">
<path transform="matrix(.24,0,0,.24,-110.96,-179.74997)" d="M 476.75 755.9167 L 2739.25 755.9167 L 2739.25 1710.0834 L 476.75 1710.0834 L 476.75 755.9167 Z " fill-rule="evenodd"/>
</clipPath>
<g clip-path="url(#cp180)">
<clipPath id="cp181">
<path transform="matrix(.24,0,0,.24,-110.96,-179.74997)" d="M 575.22006 1193.4166 L 761.6133 1193.4166 L 761.6133 1251.75 L 575.22006 1251.75 L 575.22006 1193.4166 Z " fill-rule="evenodd"/>
</clipPath>
<g clip-path="url(#cp181)">
<text xml:space="preserve" transform="matrix(.99999997 0 0 .99999997 27.092812 106.67001)" font-size="10" font-family="ArialMT"><tspan y="10" x="1 6 11.546875 13.765625 19.3125 27.640625 33.1875 38.734376">vel_meas</tspan></text>
</g>
</g>
<clipPath id="cp182">
<path transform="matrix(.24,0,0,.24,-110.96,-179.74997)" d="M 476.75 755.9167 L 2739.25 755.9167 L 2739.25 1710.0834 L 476.75 1710.0834 L 476.75 755.9167 Z " fill-rule="evenodd"/>
</clipPath>
<g clip-path="url(#cp182)">
<path transform="matrix(.24,0,0,.24,-110.96,-179.74997)" d="M 1460.0834 1376.75 L 1626.75 1435.0834 L 1460.0834 1493.4166 L 1460.0834 1376.75 Z " fill="#ffffff"/>
</g>
<clipPath id="cp183">
<path transform="matrix(.24,0,0,.24,-110.96,-179.74997)" d="M 476.75 755.9167 L 2739.25 755.9167 L 2739.25 1710.0834 L 476.75 1710.0834 L 476.75 755.9167 Z " fill-rule="evenodd"/>
</clipPath>
<g clip-path="url(#cp183)">
<clipPath id="cp184">
<path transform="matrix(.24,0,0,.24,-110.96,-179.74997)" d="M 1460.0834 1376.75 L 1626.75 1376.75 L 1626.75 1493.4166 L 1460.0834 1493.4166 L 1460.0834 1376.75 Z " fill-rule="evenodd"/>
</clipPath>
<g clip-path="url(#cp184)">
</g>
</g>
<clipPath id="cp185">
<path transform="matrix(.24,0,0,.24,-110.96,-179.74997)" d="M 476.75 755.9167 L 2739.25 755.9167 L 2739.25 1710.0834 L 476.75 1710.0834 L 476.75 755.9167 Z " fill-rule="evenodd"/>
</clipPath>
<g clip-path="url(#cp185)">
</g>
<clipPath id="cp186">
<path transform="matrix(.24,0,0,.24,-110.96,-179.74997)" d="M 476.75 755.9167 L 2739.25 755.9167 L 2739.25 1710.0834 L 476.75 1710.0834 L 476.75 755.9167 Z " fill-rule="evenodd"/>
</clipPath>
<g clip-path="url(#cp186)">
<clipPath id="cp187">
<path transform="matrix(.24,0,0,.24,-110.96,-179.74997)" d="M 1460.0834 1376.75 L 1626.75 1435.0834 L 1460.0834 1493.4166 L 1460.0834 1376.75 Z "/>
</clipPath>
<g clip-path="url(#cp187)">
</g>
</g>
<clipPath id="cp188">
<path transform="matrix(.24,0,0,.24,-110.96,-179.74997)" d="M 476.75 755.9167 L 2739.25 755.9167 L 2739.25 1710.0834 L 476.75 1710.0834 L 476.75 755.9167 Z " fill-rule="evenodd"/>
</clipPath>
<g clip-path="url(#cp188)">
<clipPath id="cp189">
<path transform="matrix(.24,0,0,.24,-110.96,-179.74997)" d="M 1460.0834 1376.75 L 1626.75 1435.0834 L 1460.0834 1493.4166 L 1460.0834 1376.75 Z "/>
</clipPath>
<g clip-path="url(#cp189)">
<clipPath id="cp190">
<path transform="matrix(.24,0,0,.24,-110.96,-179.74997)" d="M 1460.0829 1368.4163 L 1626.7496 1368.4163 L 1626.7496 1485.0829 L 1460.0829 1485.0829 L 1460.0829 1368.4163 Z " fill-rule="evenodd"/>
</clipPath>
<g clip-path="url(#cp190)">
</g>
</g>
</g>
<clipPath id="cp191">
<path transform="matrix(.24,0,0,.24,-110.96,-179.74997)" d="M 1464.25 1364.25 L 1622.5834 1364.25 L 1622.5834 1505.9166 L 1464.25 1505.9166 L 1464.25 1364.25 Z " fill-rule="evenodd"/>
</clipPath>
<g clip-path="url(#cp191)">
</g>
<clipPath id="cp192">
<path transform="matrix(.24,0,0,.24,-110.96,-179.74997)" d="M 1464.25 1364.25 L 1622.5834 1364.25 L 1622.5834 1505.9166 L 1464.25 1505.9166 L 1464.25 1364.25 Z " fill-rule="evenodd"/>
</clipPath>
<g clip-path="url(#cp192)">
<clipPath id="cp193">
<path transform="matrix(.24,0,0,.24,-110.96,-179.74997)" d="M 1460.0829 1368.4163 L 1618.4163 1368.4163 L 1618.4163 1510.0829 L 1460.0829 1510.0829 L 1460.0829 1368.4163 Z " fill-rule="evenodd"/>
</clipPath>
<g clip-path="url(#cp193)">
</g>
</g>
<clipPath id="cp194">
<path transform="matrix(.24,0,0,.24,-110.96,-179.74997)" d="M 1464.25 1364.25 L 1622.5834 1364.25 L 1622.5834 1505.9166 L 1464.25 1505.9166 L 1464.25 1364.25 Z " fill-rule="evenodd"/>
</clipPath>
<g clip-path="url(#cp194)">
<clipPath id="cp195">
<path transform="matrix(.24,0,0,.24,-110.96,-179.74997)" d="M 1460.0829 1368.4163 L 1618.4163 1368.4163 L 1618.4163 1510.0829 L 1460.0829 1510.0829 L 1460.0829 1368.4163 Z " fill-rule="evenodd"/>
</clipPath>
<g clip-path="url(#cp195)">
<clipPath id="cp196">
<path transform="matrix(.24,0,0,.24,-110.96,-179.74997)" d="M 1460.0829 1368.4163 L 1618.4163 1368.4163 L 1618.4163 1510.0829 L 1460.0829 1510.0829 L 1460.0829 1368.4163 Z " fill-rule="evenodd"/>
</clipPath>
<g clip-path="url(#cp196)">
<path transform="matrix(.24,0,0,.24,-110.96,-179.74997)" d="M 1478.9915 1449.6342 L 1478.9915 1419.8164 L 1482.9628 1419.8164 L 1482.9628 1434.5951 L 1497.7415 1419.8164 L 1503.08 1419.8164 L 1490.58 1431.8607 L 1503.6659 1449.6342 L 1498.4575 1449.6342 L 1487.8456 1434.5299 L 1482.9628 1439.2826 L 1482.9628 1449.6342 L 1478.9915 1449.6342 Z M 1520.528 1446.9649 C 1519.1824 1448.1367 1517.8804 1448.9614 1516.6217 1449.4389 C 1515.3629 1449.9163 1514.0175 1450.1549 1512.5852 1450.1549 C 1510.198 1450.1549 1508.3643 1449.569 1507.0839 1448.3971 C 1505.8035 1447.2252 1505.1633 1445.7279 1505.1633 1443.9049 C 1505.1633 1442.8633 1505.402 1441.9085 1505.8795 1441.0404 C 1506.3569 1440.1723 1506.9862 1439.467 1507.7675 1438.9244 C 1508.5487 1438.382 1509.4385 1437.9805 1510.4368 1437.7201 C 1511.1312 1437.5464 1512.2163 1437.3728 1513.692 1437.1992 C 1516.6433 1436.852 1518.8135 1436.418 1520.2024 1435.8971 C 1520.2024 1435.4197 1520.2024 1435.1159 1520.2024 1434.9857 C 1520.2024 1433.4666 1519.8551 1432.4032 1519.1608 1431.7955 C 1518.2493 1430.971 1516.8604 1430.5586 1514.994 1430.5586 C 1513.3013 1430.5586 1512.0426 1430.8624 1511.218 1431.4701 C 1510.3933 1432.0776 1509.7858 1433.141 1509.395 1434.6602 L 1505.8143 1434.2045 C 1506.1182 1432.642 1506.6499 1431.394 1507.4094 1430.4609 C 1508.169 1429.5277 1509.254 1428.8117 1510.6646 1428.3125 C 1512.0752 1427.8134 1513.7136 1427.5639 1515.58 1427.5639 C 1517.403 1427.5639 1518.8894 1427.7808 1520.0396 1428.2149 C 1521.1898 1428.6489 1522.0361 1429.1914 1522.5787 1429.8424 C 1523.1212 1430.4935 1523.501 1431.3181 1523.718 1432.3164 C 1523.8483 1432.9241 1523.9133 1434.0525 1523.9133 1435.7018 L 1523.9133 1440.5846 C 1523.9133 1443.9701 1523.9893 1446.1185 1524.1412 1447.0299 C 1524.2931 1447.9414 1524.6078 1448.8095 1525.0852 1449.6342 L 1521.244 1449.6342 C 1520.8534 1448.8529 1520.6148 1447.9631 1520.528 1446.9649 Z M 1520.2024 1438.7617 C 1518.8569 1439.3259 1516.8604 1439.8034 1514.2128 1440.194 C 1512.737 1440.411 1511.6846 1440.6498 1511.0553 1440.9102 C 1510.4259 1441.1705 1509.9376 1441.5612 1509.5905 1442.082 C 1509.2432 1442.6029 1509.0696 1443.1889 1509.0696 1443.8399 C 1509.0696 1444.7947 1509.4385 1445.5977 1510.1763 1446.2487 C 1510.9142 1446.8998 1511.9993 1447.2252 1513.4315 1447.2252 C 1514.8638 1447.2252 1516.1226 1446.9214 1517.2075 1446.3139 C 1518.2926 1445.7062 1519.0956 1444.8598 1519.6165 1443.7748 C 1520.0071 1442.9501 1520.2024 1441.7348 1520.2024 1440.1289 L 1520.2024 1438.7617 Z M 1533.4837 1449.6342 L 1526.9081 1428.0195 L 1530.6842 1428.0195 L 1534.1347 1440.5195 L 1535.4368 1445.142 C 1535.4801 1444.9249 1535.8491 1443.4275 1536.5436 1440.6498 L 1539.994 1428.0195 L 1543.705 1428.0195 L 1546.9602 1440.5846 L 1548.067 1444.6862 L 1549.304 1440.5195 L 1553.0149 1428.0195 L 1556.5305 1428.0195 L 1549.7597 1449.6342 L 1545.9837 1449.6342 L 1542.5331 1436.6784 L 1541.6868 1433.0326 L 1537.3248 1449.6342 L 1533.4837 1449.6342 Z "/>
</g>
</g>
</g>
<clipPath id="cp197">
<path transform="matrix(.24,0,0,.24,-110.96,-179.74997)" d="M 1464.25 1364.25 L 1622.5834 1364.25 L 1622.5834 1505.9166 L 1464.25 1505.9166 L 1464.25 1364.25 Z " fill-rule="evenodd"/>
</clipPath>
<g clip-path="url(#cp197)">
</g>
<clipPath id="cp198">
<path transform="matrix(.24,0,0,.24,-110.96,-179.74997)" d="M 1464.25 1364.25 L 1622.5834 1364.25 L 1622.5834 1505.9166 L 1464.25 1505.9166 L 1464.25 1364.25 Z " fill-rule="evenodd"/>
</clipPath>
<g clip-path="url(#cp198)">
<clipPath id="cp199">
<path transform="matrix(.24,0,0,.24,-110.96,-179.74997)" d="M 1460.0829 1368.4163 L 1618.4163 1368.4163 L 1618.4163 1510.0829 L 1460.0829 1510.0829 L 1460.0829 1368.4163 Z " fill-rule="evenodd"/>
</clipPath>
<g clip-path="url(#cp199)">
</g>
</g>
<clipPath id="cp200">
<path transform="matrix(.24,0,0,.24,-110.96,-179.74997)" d="M 1464.25 1364.25 L 1622.5834 1364.25 L 1622.5834 1505.9166 L 1464.25 1505.9166 L 1464.25 1364.25 Z " fill-rule="evenodd"/>
</clipPath>
<g clip-path="url(#cp200)">
<clipPath id="cp201">
<path transform="matrix(.24,0,0,.24,-110.96,-179.74997)" d="M 1460.0829 1368.4163 L 1618.4163 1368.4163 L 1618.4163 1510.0829 L 1460.0829 1510.0829 L 1460.0829 1368.4163 Z " fill-rule="evenodd"/>
</clipPath>
<g clip-path="url(#cp201)">
<clipPath id="cp202">
<path transform="matrix(.24,0,0,.24,-110.96,-179.74997)" d="M 1460.0829 1368.4163 L 1618.4163 1368.4163 L 1618.4163 1510.0829 L 1460.0829 1510.0829 L 1460.0829 1368.4163 Z " fill-rule="evenodd"/>
</clipPath>
<g clip-path="url(#cp202)">
</g>
</g>
</g>
<clipPath id="cp203">
<path transform="matrix(.24,0,0,.24,-110.96,-179.74997)" d="M 1464.25 1364.25 L 1622.5834 1364.25 L 1622.5834 1505.9166 L 1464.25 1505.9166 L 1464.25 1364.25 Z " fill-rule="evenodd"/>
</clipPath>
<g clip-path="url(#cp203)">
</g>
<clipPath id="cp204">
<path transform="matrix(.24,0,0,.24,-110.96,-179.74997)" d="M 1464.25 1364.25 L 1622.5834 1364.25 L 1622.5834 1505.9166 L 1464.25 1505.9166 L 1464.25 1364.25 Z " fill-rule="evenodd"/>
</clipPath>
<g clip-path="url(#cp204)">
<clipPath id="cp205">
<path transform="matrix(.24,0,0,.24,-110.96,-179.74997)" d="M 1460.0829 1368.4163 L 1618.4163 1368.4163 L 1618.4163 1510.0829 L 1460.0829 1510.0829 L 1460.0829 1368.4163 Z " fill-rule="evenodd"/>
</clipPath>
<g clip-path="url(#cp205)">
</g>
</g>
<clipPath id="cp206">
<path transform="matrix(.24,0,0,.24,-110.96,-179.74997)" d="M 1464.25 1364.25 L 1622.5834 1364.25 L 1622.5834 1505.9166 L 1464.25 1505.9166 L 1464.25 1364.25 Z " fill-rule="evenodd"/>
</clipPath>
<g clip-path="url(#cp206)">
</g>
<clipPath id="cp207">
<path transform="matrix(.24,0,0,.24,-110.96,-179.74997)" d="M 476.75 755.9167 L 2739.25 755.9167 L 2739.25 1710.0834 L 476.75 1710.0834 L 476.75 755.9167 Z " fill-rule="evenodd"/>
</clipPath>
<g clip-path="url(#cp207)">
</g>
<clipPath id="cp208">
<path transform="matrix(.24,0,0,.24,-110.96,-179.74997)" d="M 476.75 755.9167 L 2739.25 755.9167 L 2739.25 1710.0834 L 476.75 1710.0834 L 476.75 755.9167 Z " fill-rule="evenodd"/>
</clipPath>
<g clip-path="url(#cp208)">
<clipPath id="cp209">
<path transform="matrix(.24,0,0,.24,-110.96,-179.74997)" d="M 1460.0834 1376.75 L 1626.75 1435.0834 L 1460.0834 1493.4166 L 1460.0834 1376.75 Z "/>
</clipPath>
<g clip-path="url(#cp209)">
</g>
</g>
<clipPath id="cp210">
<path transform="matrix(.24,0,0,.24,-110.96,-179.74997)" d="M 476.75 755.9167 L 2739.25 755.9167 L 2739.25 1710.0834 L 476.75 1710.0834 L 476.75 755.9167 Z " fill-rule="evenodd"/>
</clipPath>
<g clip-path="url(#cp210)">
</g>
<clipPath id="cp211">
<path transform="matrix(.24,0,0,.24,-110.96,-179.74997)" d="M 476.75 755.9167 L 2739.25 755.9167 L 2739.25 1710.0834 L 476.75 1710.0834 L 476.75 755.9167 Z " fill-rule="evenodd"/>
</clipPath>
<g clip-path="url(#cp211)">
<clipPath id="cp212">
<path transform="matrix(.24,0,0,.24,-110.96,-179.74997)" d="M 1460.0834 1376.75 L 1626.75 1376.75 L 1626.75 1493.4166 L 1460.0834 1493.4166 L 1460.0834 1376.75 Z " fill-rule="evenodd"/>
</clipPath>
<g clip-path="url(#cp212)">
</g>
</g>
<clipPath id="cp213">
<path transform="matrix(.24,0,0,.24,-110.96,-179.74997)" d="M 476.75 755.9167 L 2739.25 755.9167 L 2739.25 1710.0834 L 476.75 1710.0834 L 476.75 755.9167 Z " fill-rule="evenodd"/>
</clipPath>
<g clip-path="url(#cp213)">
<path transform="matrix(.99999997,0,0,.99999997,239.46002,150.67002)" stroke-width=".5650469" stroke-linecap="butt" stroke-miterlimit="2" stroke-linejoin="miter" fill="none" stroke="#000000" d="M 0 0 L 40 14 L 0 28 L 0 0 Z "/>
<path transform="matrix(.24,0,0,.24,-110.96,-179.74997)" d="M 1147.5834 1539.25 L 1114.25 1522.5834 L 1114.25 1555.9166 L 1147.5834 1539.25 Z "/>
<path transform="matrix(.99999997,0,0,.99999997,369.46,74.67003)" stroke-width=".24" stroke-linecap="butt" stroke-miterlimit="2" stroke-linejoin="miter" fill="none" stroke="#000000" d="M -244.86 115.06 L -213.02 115.06 "/>
<path transform="matrix(.24,0,0,.24,-110.96,-179.74997)" d="M 1147.5834 1330.9166 L 1114.25 1314.25 L 1114.25 1347.5834 L 1147.5834 1330.9166 Z "/>
<path transform="matrix(.99999997,0,0,.99999997,369.46,74.67003)" stroke-width=".24" stroke-linecap="butt" stroke-miterlimit="2" stroke-linejoin="miter" fill="none" stroke="#000000" d="M -239.81999 64.9 L -213.02 64.9 "/>
<path transform="matrix(.24,0,0,.24,-110.96,-179.74997)" d="M 1147.5834 1435.0834 L 1114.25 1418.4166 L 1114.25 1451.75 L 1147.5834 1435.0834 Z "/>
<path transform="matrix(.99999997,0,0,.99999997,369.46,74.67003)" stroke-width=".24" stroke-linecap="butt" stroke-miterlimit="2" stroke-linejoin="miter" fill="none" stroke="#000000" d="M -304.86 90.1 L -213.02 90.1 "/>
<path transform="matrix(.99999997,0,0,.99999997,369.46,74.67003)" stroke-width=".24" stroke-linecap="butt" stroke-miterlimit="2" stroke-linejoin="miter" fill="none" stroke="#000000" d="M -304.86 -34.94 L -236.94 -34.94 "/>
<path transform="matrix(.24,0,0,.24,-110.96,-179.74997)" d="M 1147.5834 1018.4167 L 1114.25 1001.75 L 1114.25 1035.0834 L 1147.5834 1018.4167 Z "/>
<path transform="matrix(.99999997,0,0,.99999997,369.46,74.67003)" stroke-width=".24" stroke-linecap="butt" stroke-miterlimit="2" stroke-linejoin="miter" fill="none" stroke="#000000" d="M -236.94 -34.94 L -236.94 -9.98 L -213.02 -9.98 "/>
<path transform="matrix(.24,0,0,.24,-110.96,-179.74997)" d="M 1147.5834 830.9167 L 1114.25 814.25 L 1114.25 847.5833 L 1147.5834 830.9167 Z "/>
<path transform="matrix(.99999997,0,0,.99999997,369.46,74.67003)" stroke-width=".24" stroke-linecap="butt" stroke-miterlimit="2" stroke-linejoin="miter" fill="none" stroke="#000000" d="M -236.94 -34.94 L -236.94 -55.1 L -213.02 -55.1 "/>
<path transform="matrix(.24,0,0,.24,-110.96,-179.74997)" d="M 1020.75 914.5 C 1020.75 917.9518 1017.9518 920.75 1014.5 920.75 C 1011.0482 920.75 1008.25 917.9518 1008.25 914.5 C 1008.25 911.0482 1011.0482 908.25 1014.5 908.25 C 1017.9518 908.25 1020.75 911.0482 1020.75 914.5 Z " fill-rule="evenodd"/>
<path transform="matrix(.99999997,0,0,.99999997,369.46,74.67003)" stroke-width=".24" stroke-linecap="butt" stroke-miterlimit="2" stroke-linejoin="miter" fill="none" stroke="#000000" d="M 94.98 -4.94 L 116.1 -4.94 "/>
<path transform="matrix(.24,0,0,.24,-110.96,-179.74997)" d="M 2605.9168 1039.25 L 2572.5833 1022.5833 L 2572.5833 1055.9166 L 2605.9168 1039.25 Z "/>
<path transform="matrix(.99999997,0,0,.99999997,369.46,74.67003)" stroke-width=".24" stroke-linecap="butt" stroke-miterlimit="2" stroke-linejoin="miter" fill="none" stroke="#000000" d="M 116.1 -4.94 L 137.14 -4.94 "/>
<path transform="matrix(.24,0,0,.24,-110.96,-179.74997)" d="M 876.75 1351.75 L 843.4167 1335.0834 L 843.4167 1368.4166 L 876.75 1351.75 Z "/>
<path transform="matrix(.99999997,0,0,.99999997,369.46,74.67003)" stroke-width=".24" stroke-linecap="butt" stroke-miterlimit="2" stroke-linejoin="miter" fill="none" stroke="#000000" d="M 116.1 -4.94 L 116.1 153.94 L -363.9 153.94 L -363.9 69.94 L -277.82 69.94 "/>
<path transform="matrix(.24,0,0,.24,-110.96,-179.74997)" d="M 2491.75 1039.5 C 2491.75 1042.9518 2488.9517 1045.75 2485.5 1045.75 C 2482.0484 1045.75 2479.25 1042.9518 2479.25 1039.5 C 2479.25 1036.0482 2482.0484 1033.25 2485.5 1033.25 C 2488.9517 1033.25 2491.75 1036.0482 2491.75 1039.5 Z " fill-rule="evenodd"/>
<path transform="matrix(.24,0,0,.24,-110.96,-179.74997)" d="M 2272.5833 1060.0834 L 2239.25 1043.4166 L 2239.25 1076.75 L 2272.5833 1060.0834 Z "/>
<path transform="matrix(.99999997,0,0,.99999997,369.46,74.67003)" stroke-width=".24" stroke-linecap="butt" stroke-miterlimit="2" stroke-linejoin="miter" fill="none" stroke="#000000" d="M 34.98 .1 L 56.98 .1 "/>
<path transform="matrix(.24,0,0,.24,-110.96,-179.74997)" d="M 2022.5834 1060.0834 L 1989.25 1043.4166 L 1989.25 1076.75 L 2022.5834 1060.0834 Z "/>
<path transform="matrix(.99999997,0,0,.99999997,369.46,74.67003)" stroke-width=".24" stroke-linecap="butt" stroke-miterlimit="2" stroke-linejoin="miter" fill="none" stroke="#000000" d="M -25.02 .1 L -3.02 .1 "/>
<path transform="matrix(.24,0,0,.24,-110.96,-179.74997)" d="M 1772.5834 1018.4167 L 1739.25 1001.75 L 1739.25 1035.0834 L 1772.5834 1018.4167 Z "/>
<path transform="matrix(.99999997,0,0,.99999997,369.46,74.67003)" stroke-width=".24" stroke-linecap="butt" stroke-miterlimit="2" stroke-linejoin="miter" fill="none" stroke="#000000" d="M -139.98 -9.98 L -63.02 -9.98 "/>
<path transform="matrix(.24,0,0,.24,-110.96,-179.74997)" d="M 2272.5833 997.5833 L 2239.25 980.9167 L 2239.25 1014.25 L 2272.5833 997.5833 Z "/>
<path transform="matrix(.99999997,0,0,.99999997,369.46,74.67003)" stroke-width=".24" stroke-linecap="butt" stroke-miterlimit="2" stroke-linejoin="miter" fill="none" stroke="#000000" d="M -139.98 -55.1 L 50.1 -55.1 L 50.1 -15.0199999 L 56.98 -15.0199999 "/>
<path transform="matrix(.24,0,0,.24,-110.96,-179.74997)" d="M 876.75 1289.25 L 843.4167 1272.5834 L 843.4167 1305.9166 L 876.75 1289.25 Z "/>
<path transform="matrix(.99999997,0,0,.99999997,369.46,74.67003)" stroke-width=".24" stroke-linecap="butt" stroke-miterlimit="2" stroke-linejoin="miter" fill="none" stroke="#000000" d="M -304.86 55.06 L -277.82 55.06 "/>
<path transform="matrix(.24,0,0,.24,-110.96,-179.74997)" d="M 1460.0834 1435.0834 L 1426.75 1418.4166 L 1426.75 1451.75 L 1460.0834 1435.0834 Z "/>
<path transform="matrix(.99999997,0,0,.99999997,369.46,74.67003)" stroke-width=".24" stroke-linecap="butt" stroke-miterlimit="2" stroke-linejoin="miter" fill="none" stroke="#000000" d="M -154.86 90.1 L -137.9 90.1 "/>
<path transform="matrix(.24,0,0,.24,-110.96,-179.74997)" d="M 1772.5834 1080.9166 L 1739.25 1064.25 L 1739.25 1097.5834 L 1772.5834 1080.9166 Z "/>
<path transform="matrix(.99999997,0,0,.99999997,369.46,74.67003)" stroke-width=".24" stroke-linecap="butt" stroke-miterlimit="2" stroke-linejoin="miter" fill="none" stroke="#000000" d="M -89.82 90.1 L -73.02 90.1 L -73.02 4.9 L -63.02 4.9 "/>
</g>
<clipPath id="cp214">
<path transform="matrix(.24,0,0,.24,-110.96,-179.74997)" d="M 0 0 L 3216 0 L 3216 2466 L 0 2466 L 0 0 Z " fill-rule="evenodd"/>
</clipPath>
<g clip-path="url(#cp214)">
</g>
<clipPath id="cp215">
<path transform="matrix(.24,0,0,.24,-110.96,-179.74997)" d="M 0 0 L 4.1666667 0 L 4.1666667 4.1666667 L 0 4.1666667 L 0 0 Z " fill-rule="evenodd"/>
</clipPath>
<g clip-path="url(#cp215)">
</g>
</g>
</svg>
