<?xml version="1.0" encoding="UTF-8" standalone="no"?>
<!DOCTYPE svg PUBLIC "-//W3C//DTD SVG 1.1//EN" "http://www.w3.org/Graphics/SVG/1.1/DTD/svg11.dtd">
<svg xmlns="http://www.w3.org/2000/svg" xmlns:xlink="http://www.w3.org/1999/xlink" version="1.1" width="485pt" height="206.67pt" viewBox="0 0 485 206.67">
<g enable-background="new">
<path transform="matrix(.75,0,0,.75,-155,-202.5)" d="M 0 0 L 1056 0 L 1056 816 L 0 816 L 0 0 Z " fill="#ffffff" fill-rule="evenodd"/>
<clipPath id="cp0">
<path transform="matrix(.75,0,0,.75,-155,-202.5)" d="M 207.04 273.28 L 207.04 542.72 L 848.96 542.72 L 848.96 273.28 Z " fill-rule="evenodd"/>
</clipPath>
<g clip-path="url(#cp0)">
<path transform="matrix(.75,0,0,.75,-155,-202.5)" d="M 392.96 409.28 L 459.52 409.28 L 459.52 505.28 L 392.96 505.28 L 392.96 409.28 Z " fill="#ffffff" fill-rule="evenodd"/>
</g>
<clipPath id="cp1">
<path transform="matrix(.75,0,0,.75,-155,-202.5)" d="M 392.96 409.28 L 392.96 505.28 L 459.52 505.28 L 459.52 409.28 Z " fill-rule="evenodd"/>
</clipPath>
<g clip-path="url(#cp1)">
<path transform="matrix(.75,0,0,.75,-155,-202.5)" d="M 420.48 492.64 L 420.48 495.36 L 420.16 495.36 L 420.16 492.64 L 420.48 492.64 Z "/>
<path transform="matrix(.75,0,0,.75,-155,-202.5)" d="M 420.32 495.2 L 424.32 495.2 L 424.32 495.52 L 420.32 495.52 L 420.32 495.2 Z "/>
<path transform="matrix(.75,0,0,.75,-155,-202.5)" d="M 424.16 495.36 L 424.16 490.08 L 424.48 490.08 L 424.48 495.36 L 424.16 495.36 Z "/>
<path transform="matrix(.75,0,0,.75,-155,-202.5)" d="M 424.32 490.24 L 420.32 490.24 L 420.32 489.92 L 424.32 489.92 L 424.32 490.24 Z "/>
<path transform="matrix(.75,0,0,.75,-155,-202.5)" d="M 420.48 490.08 L 420.48 492.64 L 420.16 492.64 L 420.16 490.08 L 420.48 490.08 Z "/>
<path transform="matrix(.75,0,0,.75,-155,-202.5)" d="M 420.32 492.8 L 393.6 492.8 L 393.6 492.48 L 420.32 492.48 L 420.32 492.8 Z "/>
<path transform="matrix(.75,0,0,.75,-155,-202.5)" d="M 420.48 424.64 L 420.48 427.36 L 420.16 427.36 L 420.16 424.64 L 420.48 424.64 Z "/>
<path transform="matrix(.75,0,0,.75,-155,-202.5)" d="M 420.32 427.2 L 424.32 427.2 L 424.32 427.52 L 420.32 427.52 L 420.32 427.2 Z "/>
<path transform="matrix(.75,0,0,.75,-155,-202.5)" d="M 424.16 427.36 L 424.16 422.08 L 424.48 422.08 L 424.48 427.36 L 424.16 427.36 Z "/>
<path transform="matrix(.75,0,0,.75,-155,-202.5)" d="M 424.32 422.24 L 420.32 422.24 L 420.32 421.92 L 424.32 421.92 L 424.32 422.24 Z "/>
<path transform="matrix(.75,0,0,.75,-155,-202.5)" d="M 420.48 422.08 L 420.48 424.64 L 420.16 424.64 L 420.16 422.08 L 420.48 422.08 Z "/>
<path transform="matrix(.75,0,0,.75,-155,-202.5)" d="M 420.32 424.8 L 393.6 424.8 L 393.6 424.48 L 420.32 424.48 L 420.32 424.8 Z "/>
<path transform="matrix(.75,0,0,.75,-155,-202.5)" d="M 423.04 424.64 L 447.04 457.92 L 446.72 458.08 L 422.72 424.8 L 423.04 424.64 Z "/>
</g>
<clipPath id="cp2">
<path transform="matrix(.75,0,0,.75,-155,-202.5)" d="M 446.88 457.92 L 459.52 457.92 L 459.52 458.4 L 446.88 458.4 Z " fill-rule="evenodd"/>
</clipPath>
<g clip-path="url(#cp2)">
<path transform="matrix(.75,0,0,.75,-155,-202.5)" d="M 446.88 457.92 L 460.32 457.92 L 460.32 458.24 L 446.88 458.24 L 446.88 457.92 Z "/>
</g>
<clipPath id="cp3">
<path transform="matrix(.75,0,0,.75,-155,-202.5)" d="M 392.96 409.28 L 392.96 505.28 L 459.52 505.28 L 459.52 409.28 Z " fill-rule="evenodd"/>
</clipPath>
<g clip-path="url(#cp3)">
<path transform="matrix(.75,0,0,.75,-155,-202.5)" d="M 402.72 468.64 L 402.72 448.64 L 403.04 448.64 L 403.04 468.64 L 402.72 468.64 Z "/>
<path transform="matrix(.75,0,0,.75,-155,-202.5)" d="M 403.04 448.64 L 403.04 458.08 L 402.72 458.08 L 402.72 448.64 L 403.04 448.64 Z "/>
<path transform="matrix(.75,0,0,.75,-155,-202.5)" d="M 402.88 458.24 L 393.6 458.24 L 393.6 457.92 L 402.88 457.92 L 402.88 458.24 Z "/>
<path transform="matrix(.75,0,0,.75,151.84,140.34)" d="M 0 0 L 0 -1.44 C .48 -1.92 1.12 -2.24 1.92 -2.24 C 2.08 -2.24 2.4 -2.24 2.72 -2.08 C 3.04 -2.08 3.36 -1.92 3.84 -1.6 C 4.16 -1.44 4.48 -1.44 4.64 -1.44 C 4.64 -1.28 4.8 -1.28 4.96 -1.28 C 5.28 -1.28 5.6 -1.44 5.92 -1.6 C 6.24 -1.76 6.4 -1.92 6.72 -2.24 L 6.72 -.8 C 6.4 -.64 6.08 -.32 5.92 -.32 C 5.6 -.16 5.28 -.16 4.96 -.16 C 4.64 -.16 4.48 -.16 4.16 -.16 C 4 -.16 3.52 -.32 3.04 -.64 C 2.56 -.8 2.08 -.96 1.76 -.96 C 1.44 -.96 1.28 -.96 .96 -.8 C .64 -.64 .48 -.48 0 0 Z M 14.24 -2.08 L 8 -2.08 L 8 -3.2 L 14.24 -3.2 L 14.24 -2.08 Z M 14.24 .8 L 8 .8 L 8 -.32 L 14.24 -.32 L 14.24 .8 Z M 19.2 -1.12 C 19.2 -2.24 19.36 -3.2 19.68 -3.84 C 19.84 -4.64 20.16 -5.12 20.64 -5.44 C 21.12 -5.92 21.76 -6.08 22.4 -6.08 C 22.88 -6.08 23.36 -5.92 23.68 -5.76 C 24.16 -5.44 24.48 -5.28 24.64 -4.8 C 24.96 -4.48 25.12 -4 25.28 -3.36 C 25.44 -2.88 25.44 -2.08 25.44 -1.12 C 25.44 0 25.44 .8 25.12 1.6 C 24.96 2.24 24.64 2.72 24.16 3.2 C 23.68 3.52 23.04 3.68 22.4 3.68 C 21.44 3.68 20.8 3.36 20.16 2.72 C 19.52 1.92 19.2 .64 19.2 -1.12 Z M 20.48 -1.12 C 20.48 .48 20.64 1.44 20.96 1.92 C 21.44 2.56 21.76 2.72 22.4 2.72 C 22.88 2.72 23.36 2.56 23.68 1.92 C 24.16 1.44 24.32 .48 24.32 -1.12 C 24.32 -2.72 24.16 -3.84 23.68 -4.32 C 23.36 -4.8 22.88 -5.12 22.4 -5.12 C 21.76 -5.12 21.44 -4.8 21.12 -4.32 C 20.64 -3.84 20.48 -2.72 20.48 -1.12 Z "/>
</g>
<clipPath id="cp4">
<path transform="matrix(.75,0,0,.75,-155,-202.5)" d="M 207.04 273.28 L 207.04 542.72 L 848.96 542.72 L 848.96 273.28 Z " fill-rule="evenodd"/>
</clipPath>
<g clip-path="url(#cp4)">
<path transform="matrix(.75,0,0,.75,139.72,104.22)" d="M 0 0 L 66.56 0 L 67.04 0 L 67.04 .32 L 67.04 96.32 L 67.04 96.8 L 66.56 96.8 L 0 96.8 L -.48 96.8 L -.48 96.32 L -.48 .32 L -.48 0 L 0 0 Z M .32 .32 L .32 96.32 L 0 96.32 L 0 96 L 66.56 96 L 66.56 96.32 L 66.24 96.32 L 66.24 .32 L 66.56 .32 L 66.56 .8 L 0 .8 L 0 .32 L .32 .32 Z "/>
<path transform="matrix(.75,0,0,.75,16.720002,43.5)" d="M 0 0 L 21.28 0 C 26.4 0 30.56 4.16 30.56 9.28 C 30.56 14.56 26.4 18.72 21.28 18.72 L 0 18.72 C -5.28 18.72 -9.44 14.56 -9.44 9.28 C -9.44 4.16 -5.28 0 0 0 Z " fill="#ffffff"/>
</g>
<clipPath id="cp5">
<path transform="matrix(.75,0,0,.75,25.600007,54.059999)" d="M -21.28 -14.08 L -21.28 4.64 L 18.72 4.64 L 18.72 -14.08 Z " fill-rule="evenodd"/>
</clipPath>
<g clip-path="url(#cp5)">
<path transform="matrix(.75,0,0,.75,25.600007,54.059999)" d="M 0 0 L -1.12 0 L -1.12 -7.52 C -1.44 -7.2 -1.76 -7.04 -2.24 -6.72 C -2.72 -6.4 -3.04 -6.24 -3.52 -6.08 L -3.52 -7.2 C -2.72 -7.52 -2.24 -8 -1.76 -8.32 C -1.28 -8.8 -.96 -9.28 -.64 -9.6 L 0 -9.6 L 0 0 Z "/>
</g>
<clipPath id="cp6">
<path transform="matrix(.75,0,0,.75,16.720002,43.259996)" d="M -21.92 -54.4 L -21.92 215.04 L 620 215.04 L 620 -54.4 Z " fill-rule="evenodd"/>
</clipPath>
<g clip-path="url(#cp6)">
<path transform="matrix(.75,0,0,.75,16.720002,43.259996)" d="M 0 0 L 21.28 0 C 26.56 0 31.04 4.32 31.04 9.6 C 31.04 15.04 26.56 19.36 21.28 19.36 L 0 19.36 C -5.28 19.36 -9.76 15.04 -9.76 9.6 C -9.76 4.32 -5.28 0 0 0 Z M 0 .64 C -5.12 .64 -8.96 4.64 -8.96 9.6 C -8.96 14.72 -5.12 18.56 0 18.56 L 21.28 18.56 C 26.24 18.56 30.24 14.72 30.24 9.6 C 30.24 4.64 26.24 .64 21.28 .64 L 0 .64 Z "/>
</g>
<clipPath id="cp7">
<path transform="matrix(.75,0,0,.75,-155,-202.5)" d="M 220.16 306.72 L 220.16 325.28 L 258.72 325.28 L 258.72 306.72 Z " fill-rule="evenodd"/>
</clipPath>
<g clip-path="url(#cp7)">
<path transform="matrix(.75,0,0,.75,-155,-202.5)" d="M 227.04 317.76 L 228.32 317.92 C 228.16 318.56 227.68 319.2 227.2 319.52 C 226.72 320 226.08 320.16 225.28 320.16 C 224.16 320.16 223.36 319.84 222.88 319.2 C 222.24 318.56 221.92 317.76 221.92 316.64 C 221.92 315.36 222.24 314.56 222.88 313.92 C 223.52 313.28 224.16 312.96 225.12 312.96 C 226.08 312.96 226.88 313.28 227.36 313.92 C 228 314.56 228.32 315.36 228.32 316.48 C 228.32 316.64 228.32 316.64 228.32 316.8 L 223.2 316.8 C 223.2 317.6 223.36 318.24 223.84 318.56 C 224.16 319.04 224.64 319.2 225.28 319.2 C 225.6 319.2 226.08 319.04 226.4 318.88 C 226.72 318.56 226.88 318.24 227.04 317.76 Z M 223.2 315.84 L 227.04 315.84 C 227.04 315.36 226.88 314.88 226.72 314.56 C 226.24 314.08 225.76 313.92 225.12 313.92 C 224.64 313.92 224.16 314.08 223.84 314.4 C 223.52 314.72 223.2 315.2 223.2 315.84 Z M 228.64 322.72 L 228.64 321.76 L 236.48 321.76 L 236.48 322.72 L 228.64 322.72 Z M 237.12 322.72 L 237.12 313.12 L 238.24 313.12 L 238.24 313.92 C 238.4 313.6 238.72 313.44 239.04 313.12 C 239.36 312.96 239.68 312.96 240.16 312.96 C 240.8 312.96 241.28 313.12 241.76 313.44 C 242.24 313.76 242.56 314.08 242.72 314.72 C 243.04 315.2 243.04 315.84 243.04 316.48 C 243.04 317.12 243.04 317.76 242.72 318.4 C 242.56 319.04 242.08 319.36 241.6 319.68 C 241.12 320 240.64 320.16 240.16 320.16 C 239.68 320.16 239.36 320.16 239.04 319.84 C 238.72 319.68 238.56 319.52 238.24 319.36 L 238.24 322.72 L 237.12 322.72 Z M 238.24 316.64 C 238.24 317.44 238.4 318.08 238.72 318.56 C 239.04 319.04 239.52 319.2 240 319.2 C 240.48 319.2 240.96 319.04 241.44 318.56 C 241.76 318.08 241.92 317.44 241.92 316.48 C 241.92 315.68 241.76 314.88 241.44 314.56 C 240.96 314.08 240.64 313.92 240 313.92 C 239.52 313.92 239.2 314.08 238.72 314.56 C 238.4 315.04 238.24 315.68 238.24 316.64 Z M 244 316.48 C 244 315.2 244.48 314.24 245.12 313.76 C 245.76 313.12 246.4 312.96 247.36 312.96 C 248.32 312.96 249.12 313.28 249.6 313.92 C 250.24 314.56 250.56 315.36 250.56 316.48 C 250.56 317.28 250.4 318.08 250.24 318.56 C 249.92 319.04 249.44 319.52 248.96 319.68 C 248.48 320 248 320.16 247.36 320.16 C 246.4 320.16 245.6 319.84 244.96 319.2 C 244.32 318.56 244 317.76 244 316.48 Z M 245.28 316.48 C 245.28 317.44 245.44 318.08 245.92 318.56 C 246.24 319.04 246.72 319.2 247.36 319.2 C 247.84 319.2 248.32 319.04 248.8 318.56 C 249.12 318.08 249.28 317.44 249.28 316.48 C 249.28 315.68 249.12 315.04 248.8 314.56 C 248.32 314.08 247.84 313.92 247.36 313.92 C 246.72 313.92 246.24 314.08 245.92 314.56 C 245.44 315.04 245.28 315.68 245.28 316.48 Z M 251.52 317.92 L 252.64 317.76 C 252.64 318.24 252.8 318.56 253.12 318.88 C 253.44 319.04 253.92 319.2 254.4 319.2 C 254.88 319.2 255.36 319.04 255.52 318.88 C 255.84 318.72 256 318.4 256 318.08 C 256 317.76 255.84 317.6 255.68 317.44 C 255.52 317.44 255.04 317.28 254.4 317.12 C 253.6 316.8 252.96 316.64 252.64 316.48 C 252.32 316.32 252 316.16 251.84 315.84 C 251.68 315.52 251.68 315.2 251.68 314.88 C 251.68 314.56 251.68 314.4 251.84 314.08 C 252 313.76 252.16 313.6 252.48 313.44 C 252.64 313.28 252.8 313.12 253.12 313.12 C 253.44 312.96 253.76 312.96 254.24 312.96 C 254.72 312.96 255.2 312.96 255.68 313.12 C 256 313.28 256.32 313.6 256.48 313.76 C 256.8 314.08 256.8 314.4 256.96 314.88 L 255.84 315.04 C 255.68 314.72 255.52 314.4 255.36 314.24 C 255.04 313.92 254.72 313.92 254.24 313.92 C 253.76 313.92 253.28 313.92 253.12 314.08 C 252.96 314.4 252.8 314.56 252.8 314.72 C 252.8 314.88 252.8 315.04 252.96 315.2 C 252.96 315.36 253.12 315.36 253.44 315.52 C 253.44 315.52 253.76 315.68 254.4 315.84 C 255.2 316 255.84 316.16 256.16 316.32 C 256.48 316.48 256.64 316.64 256.96 316.96 C 257.12 317.28 257.12 317.6 257.12 317.92 C 257.12 318.4 257.12 318.72 256.8 319.04 C 256.64 319.36 256.32 319.68 255.84 319.84 C 255.36 320 254.88 320.16 254.4 320.16 C 253.44 320.16 252.8 320 252.32 319.68 C 251.84 319.2 251.52 318.72 251.52 317.92 Z "/>
</g>
<clipPath id="cp8">
<path transform="matrix(.75,0,0,.75,456.64,73.5)" d="M -608.48 -94.72 L -608.48 174.72 L 33.44 174.72 L 33.44 -94.72 Z " fill-rule="evenodd"/>
</clipPath>
<g clip-path="url(#cp8)">
<path transform="matrix(.75,0,0,.75,456.64,73.5)" d="M 0 0 L 21.44 0 C 26.56 0 30.72 4.16 30.72 9.28 C 30.72 14.56 26.56 18.72 21.44 18.72 L 0 18.72 C -5.12 18.72 -9.28 14.56 -9.28 9.28 C -9.28 4.16 -5.12 0 0 0 Z " fill="#ffffff"/>
</g>
<clipPath id="cp9">
<path transform="matrix(.75,0,0,.75,465.64,84.06)" d="M -21.28 -14.08 L -21.28 4.64 L 18.72 4.64 L 18.72 -14.08 Z " fill-rule="evenodd"/>
</clipPath>
<g clip-path="url(#cp9)">
<path transform="matrix(.75,0,0,.75,465.64,84.06)" d="M 0 0 L -1.12 0 L -1.12 -7.52 C -1.44 -7.2 -1.76 -7.04 -2.24 -6.72 C -2.72 -6.4 -3.2 -6.24 -3.52 -6.08 L -3.52 -7.2 C -2.88 -7.52 -2.24 -8 -1.76 -8.32 C -1.28 -8.8 -.96 -9.28 -.8 -9.6 L 0 -9.6 L 0 0 Z "/>
</g>
<clipPath id="cp10">
<path transform="matrix(.75,0,0,.75,456.64,73.26001)" d="M -608.48 -94.4 L -608.48 175.04 L 33.44 175.04 L 33.44 -94.4 Z " fill-rule="evenodd"/>
</clipPath>
<g clip-path="url(#cp10)">
<path transform="matrix(.75,0,0,.75,456.64,73.26001)" d="M 0 0 L 21.44 0 C 26.72 0 31.04 4.32 31.04 9.6 C 31.04 15.04 26.72 19.36 21.44 19.36 L 0 19.36 C -5.28 19.36 -9.6 15.04 -9.6 9.6 C -9.6 4.32 -5.28 0 0 0 Z M 0 .64 C -4.96 .64 -8.96 4.64 -8.96 9.6 C -8.96 14.72 -4.96 18.56 0 18.56 L 21.44 18.56 C 26.4 18.56 30.4 14.72 30.4 9.6 C 30.4 4.64 26.4 .64 21.44 .64 L 0 .64 Z "/>
</g>
<clipPath id="cp11">
<path transform="matrix(.75,0,0,.75,457.96003,99.54001)" d="M -2.4 -13.44 L -2.4 5.28 L 20.32 5.28 L 20.32 -13.44 Z " fill-rule="evenodd"/>
</clipPath>
<g clip-path="url(#cp11)">
<path transform="matrix(.75,0,0,.75,457.96003,99.54001)" d="M 0 0 L 0 -9.6 L 1.92 -9.6 L 4.16 -2.88 C 4.32 -2.24 4.48 -1.76 4.64 -1.44 C 4.64 -1.76 4.8 -2.24 5.12 -2.88 L 7.36 -9.6 L 9.12 -9.6 L 9.12 0 L 7.84 0 L 7.84 -8 L 5.12 0 L 4 0 L 1.12 -8.16 L 1.12 0 L 0 0 Z M 13.76 0 L 10.08 -9.6 L 11.52 -9.6 L 13.92 -2.72 C 14.24 -2.08 14.4 -1.6 14.56 -1.12 C 14.56 -1.6 14.88 -2.08 15.04 -2.72 L 17.6 -9.6 L 18.88 -9.6 L 15.2 0 L 13.76 0 Z "/>
</g>
<clipPath id="cp12">
<path transform="matrix(.75,0,0,.75,-155,-202.5)" d="M 207.04 273.28 L 207.04 542.72 L 848.96 542.72 L 848.96 273.28 Z " fill-rule="evenodd"/>
</clipPath>
<g clip-path="url(#cp12)">
<path transform="matrix(.75,0,0,.75,-155,-202.5)" d="M 312.96 480 L 339.52 480 L 339.52 501.28 L 312.96 501.28 L 312.96 480 Z " fill="#ffffff" fill-rule="evenodd"/>
</g>
<clipPath id="cp13">
<path transform="matrix(.75,0,0,.75,87.28,164.58002)" d="M -18.08 -20.16 L -18.08 23.84 L 25.92 23.84 L 25.92 -20.16 Z " fill-rule="evenodd"/>
</clipPath>
<g clip-path="url(#cp13)">
<path transform="matrix(.75,0,0,.75,87.28,164.58002)" d="M 0 0 C 0 -1.12 .16 -2.08 .48 -2.72 C .64 -3.52 .96 -4 1.44 -4.32 C 1.92 -4.8 2.4 -4.96 3.2 -4.96 C 3.68 -4.96 4.16 -4.8 4.48 -4.64 C 4.96 -4.32 5.28 -4.16 5.44 -3.68 C 5.76 -3.36 5.92 -2.88 6.08 -2.24 C 6.24 -1.76 6.24 -.96 6.24 0 C 6.24 1.12 6.08 1.92 5.92 2.72 C 5.76 3.36 5.28 3.84 4.96 4.32 C 4.48 4.64 3.84 4.8 3.2 4.8 C 2.24 4.8 1.6 4.48 .96 3.84 C .32 3.04 0 1.76 0 0 Z M 1.28 0 C 1.28 1.6 1.44 2.56 1.76 3.04 C 2.24 3.68 2.56 3.84 3.2 3.84 C 3.68 3.84 4.16 3.68 4.48 3.04 C 4.96 2.56 5.12 1.6 5.12 0 C 5.12 -1.6 4.96 -2.72 4.48 -3.2 C 4.16 -3.68 3.68 -4 3.2 -4 C 2.56 -4 2.24 -3.68 1.92 -3.2 C 1.44 -2.72 1.28 -1.6 1.28 0 Z "/>
</g>
<clipPath id="cp14">
<path transform="matrix(.75,0,0,.75,-155,-202.5)" d="M 207.04 273.28 L 207.04 542.72 L 848.96 542.72 L 848.96 273.28 Z " fill-rule="evenodd"/>
</clipPath>
<g clip-path="url(#cp14)">
<path transform="matrix(.75,0,0,.75,79.72,157.26001)" d="M 0 0 L 26.56 0 L 27.04 0 L 27.04 .32 L 27.04 21.6 L 27.04 22.08 L 26.56 22.08 L 0 22.08 L -.48 22.08 L -.48 21.6 L -.48 .32 L -.48 0 L 0 0 Z M .32 .32 L .32 21.6 L 0 21.6 L 0 21.28 L 26.56 21.28 L 26.56 21.6 L 26.24 21.6 L 26.24 .32 L 26.56 .32 L 26.56 .64 L 0 .64 L 0 .32 L .32 .32 Z "/>
<path transform="matrix(.75,0,0,.75,-155,-202.5)" d="M 306.24 400 L 346.24 400 L 346.24 441.28 L 306.24 441.28 L 306.24 400 Z " fill="#ffffff"/>
</g>
<clipPath id="cp15">
<path transform="matrix(.75,0,0,.75,-155,-202.5)" d="M 306.24 400 L 306.24 441.28 L 346.24 441.28 L 346.24 400 Z " fill-rule="evenodd"/>
</clipPath>
<g clip-path="url(#cp15)">
<path transform="matrix(.75,0,0,.75,79.240009,107.82001)" d="M 0 0 L 0 -2.56 L -2.56 -2.56 L -2.56 -3.68 L 0 -3.68 L 0 -6.24 L 1.12 -6.24 L 1.12 -3.68 L 3.68 -3.68 L 3.68 -2.56 L 1.12 -2.56 L 1.12 0 L 0 0 Z "/>
<path transform="matrix(.75,0,0,.75,-155,-202.5)" d="M 316 431.2 L 309.76 431.2 L 309.76 430.08 L 316 430.08 L 316 431.2 Z "/>
</g>
<clipPath id="cp16">
<path transform="matrix(.75,0,0,.75,-155,-202.5)" d="M 207.04 273.28 L 207.04 542.72 L 848.96 542.72 L 848.96 273.28 Z " fill-rule="evenodd"/>
</clipPath>
<g clip-path="url(#cp16)">
<path transform="matrix(.75,0,0,.75,74.67999,97.26001)" d="M 0 0 L 40 0 L 40.32 0 L 40.32 .32 L 40.32 41.6 L 40.32 42.08 L 40 42.08 L 0 42.08 L -.32 42.08 L -.32 41.6 L -.32 .32 L -.32 0 L 0 0 Z M .32 .32 L .32 41.6 L 0 41.6 L 0 41.28 L 40 41.28 L 40 41.6 L 39.68 41.6 L 39.68 .32 L 40 .32 L 40 .64 L 0 .64 L 0 .32 L .32 .32 Z "/>
<path transform="matrix(.75,0,0,.75,16.720002,133.5)" d="M 0 0 L 21.28 0 C 26.4 0 30.56 4.16 30.56 9.28 C 30.56 14.56 26.4 18.72 21.28 18.72 L 0 18.72 C -5.28 18.72 -9.44 14.56 -9.44 9.28 C -9.44 4.16 -5.28 0 0 0 Z " fill="#ffffff"/>
</g>
<clipPath id="cp17">
<path transform="matrix(.75,0,0,.75,26.919999,143.09998)" d="M -23.04 -12.8 L -23.04 5.92 L 16.96 5.92 L 16.96 -12.8 Z " fill-rule="evenodd"/>
</clipPath>
<g clip-path="url(#cp17)">
<path transform="matrix(.75,0,0,.75,26.919999,143.09998)" d="M 0 0 L 0 1.28 L -6.24 1.28 C -6.24 .96 -6.24 .64 -6.08 .32 C -5.92 0 -5.76 -.48 -5.28 -.96 C -4.96 -1.28 -4.48 -1.76 -3.84 -2.4 C -2.72 -3.2 -2.08 -3.84 -1.76 -4.32 C -1.28 -4.8 -1.12 -5.28 -1.12 -5.76 C -1.12 -6.24 -1.28 -6.56 -1.6 -6.88 C -2.08 -7.2 -2.4 -7.36 -3.04 -7.36 C -3.52 -7.36 -4 -7.2 -4.32 -6.88 C -4.64 -6.56 -4.8 -6.08 -4.8 -5.44 L -6.08 -5.6 C -5.92 -6.56 -5.6 -7.2 -5.12 -7.68 C -4.64 -8.16 -3.84 -8.32 -2.88 -8.32 C -2.08 -8.32 -1.28 -8.16 -.8 -7.68 C -.16 -7.04 0 -6.56 0 -5.76 C 0 -5.28 0 -4.96 -.16 -4.64 C -.32 -4.16 -.64 -3.84 -.96 -3.36 C -1.28 -3.04 -1.92 -2.4 -2.72 -1.76 C -3.52 -1.12 -4 -.8 -4.16 -.64 C -4.32 -.32 -4.48 -.16 -4.64 0 L 0 0 Z "/>
</g>
<clipPath id="cp18">
<path transform="matrix(.75,0,0,.75,16.720002,133.26001)" d="M -21.92 -174.4 L -21.92 95.04 L 620 95.04 L 620 -174.4 Z " fill-rule="evenodd"/>
</clipPath>
<g clip-path="url(#cp18)">
<path transform="matrix(.75,0,0,.75,16.720002,133.26001)" d="M 0 0 L 21.28 0 C 26.56 0 31.04 4.32 31.04 9.6 C 31.04 15.04 26.56 19.36 21.28 19.36 L 0 19.36 C -5.28 19.36 -9.76 15.04 -9.76 9.6 C -9.76 4.32 -5.28 0 0 0 Z M 0 .64 C -5.12 .64 -8.96 4.64 -8.96 9.6 C -8.96 14.72 -5.12 18.56 0 18.56 L 21.28 18.56 C 26.24 18.56 30.24 14.72 30.24 9.6 C 30.24 4.64 26.24 .64 21.28 .64 L 0 .64 Z "/>
</g>
<clipPath id="cp19">
<path transform="matrix(.75,0,0,.75,13.720001,159.54001)" d="M -4.8 -13.44 L -4.8 5.28 L 33.76 5.28 L 33.76 -13.44 Z " fill-rule="evenodd"/>
</clipPath>
<g clip-path="url(#cp19)">
<path transform="matrix(.75,0,0,.75,13.720001,159.54001)" d="M 0 0 L 0 -8.48 L -3.2 -8.48 L -3.2 -9.6 L 4.32 -9.6 L 4.32 -8.48 L 1.28 -8.48 L 1.28 0 L 0 0 Z M 5.6 0 L 5.6 -9.6 L 9.92 -9.6 C 10.72 -9.6 11.36 -9.44 11.84 -9.28 C 12.32 -9.12 12.64 -8.8 12.96 -8.48 C 13.12 -8 13.28 -7.52 13.28 -7.04 C 13.28 -6.24 13.12 -5.76 12.64 -5.28 C 12.16 -4.8 11.52 -4.48 10.56 -4.32 C 10.88 -4.16 11.2 -4.16 11.36 -4 C 11.68 -3.52 12.16 -3.2 12.48 -2.72 L 14.08 0 L 12.48 0 L 11.2 -2.08 C 10.88 -2.56 10.56 -3.04 10.24 -3.36 C 10.08 -3.68 9.92 -3.84 9.6 -4 C 9.44 -4.16 9.28 -4.16 9.12 -4.32 C 8.96 -4.32 8.8 -4.32 8.32 -4.32 L 6.88 -4.32 L 6.88 0 L 5.6 0 Z M 6.88 -5.44 L 9.6 -5.44 C 10.24 -5.44 10.72 -5.44 11.04 -5.6 C 11.36 -5.76 11.52 -5.92 11.68 -6.08 C 11.84 -6.4 12 -6.72 12 -7.04 C 12 -7.52 11.84 -7.84 11.52 -8.16 C 11.2 -8.48 10.72 -8.48 9.92 -8.48 L 6.88 -8.48 L 6.88 -5.44 Z M 14.08 2.56 L 14.08 1.76 L 21.76 1.76 L 21.76 2.56 L 14.08 2.56 Z M 22.56 0 L 22.56 -9.6 L 24.48 -9.6 L 26.72 -2.88 C 27.04 -2.24 27.2 -1.76 27.2 -1.44 C 27.36 -1.76 27.52 -2.24 27.68 -2.88 L 30.08 -9.6 L 31.68 -9.6 L 31.68 0 L 30.56 0 L 30.56 -8 L 27.68 0 L 26.56 0 L 23.84 -8.16 L 23.84 0 L 22.56 0 Z "/>
</g>
<clipPath id="cp20">
<path transform="matrix(.75,0,0,.75,-155,-202.5)" d="M 207.04 273.28 L 207.04 542.72 L 848.96 542.72 L 848.96 273.28 Z " fill-rule="evenodd"/>
</clipPath>
<g clip-path="url(#cp20)">
<path transform="matrix(.75,0,0,.75,-155,-202.5)" d="M 706.24 352 L 746.24 352 L 746.24 396 L 706.24 396 L 706.24 352 Z " fill="#ffffff"/>
</g>
<clipPath id="cp21">
<path transform="matrix(.75,0,0,.75,-155,-202.5)" d="M 706.24 352 L 706.24 396 L 746.24 396 L 746.24 352 Z " fill-rule="evenodd"/>
</clipPath>
<g clip-path="url(#cp21)">
<path transform="matrix(.75,0,0,.75,379.24,72.900028)" d="M 0 0 L 0 -2.72 L -2.56 -2.72 L -2.56 -3.84 L 0 -3.84 L 0 -6.4 L 1.12 -6.4 L 1.12 -3.84 L 3.68 -3.84 L 3.68 -2.72 L 1.12 -2.72 L 1.12 0 L 0 0 Z "/>
<path transform="matrix(.75,0,0,.75,379.24,87.900028)" d="M 0 0 L 0 -2.72 L -2.56 -2.72 L -2.56 -3.84 L 0 -3.84 L 0 -6.4 L 1.12 -6.4 L 1.12 -3.84 L 3.68 -3.84 L 3.68 -2.72 L 1.12 -2.72 L 1.12 0 L 0 0 Z "/>
</g>
<clipPath id="cp22">
<path transform="matrix(.75,0,0,.75,-155,-202.5)" d="M 207.04 273.28 L 207.04 542.72 L 848.96 542.72 L 848.96 273.28 Z " fill-rule="evenodd"/>
</clipPath>
<g clip-path="url(#cp22)">
<path transform="matrix(.75,0,0,.75,374.68,61.26001)" d="M 0 0 L 40 0 L 40.32 0 L 40.32 .32 L 40.32 44.32 L 40.32 44.64 L 40 44.64 L 0 44.64 L -.32 44.64 L -.32 44.32 L -.32 .32 L -.32 0 L 0 0 Z M .32 .32 L .32 44.32 L 0 44.32 L 0 44 L 40 44 L 40 44.32 L 39.68 44.32 L 39.68 .32 L 40 .32 L 40 .64 L 0 .64 L 0 .32 L .32 .32 Z "/>
<path transform="matrix(.75,0,0,.75,-155,-202.5)" d="M 606.24 364 L 646.24 364 L 646.24 404 L 606.24 404 L 606.24 364 Z " fill="#ffffff" fill-rule="evenodd"/>
</g>
<clipPath id="cp23">
<path transform="matrix(.75,0,0,.75,-155,-202.5)" d="M 621.12 366.4 L 621.12 401.6 L 631.36 401.6 L 631.36 366.4 Z " fill-rule="evenodd"/>
</clipPath>
<g clip-path="url(#cp23)">
<path transform="matrix(.75,0,0,.75,-155,-202.5)" d="M 622.24 383.36 L 630.24 383.36 L 630.24 384.64 L 622.24 384.64 L 622.24 383.36 Z " fill-rule="evenodd"/>
<path transform="matrix(.75,0,0,.75,316.12,81.66)" d="M 0 0 L 0 -.16 C -1.12 -.16 -1.44 -.48 -1.44 -1.12 L -1.44 -9.92 L -1.6 -9.92 L -4.32 -8.64 L -4.32 -8.32 L -3.84 -8.48 C -3.52 -8.64 -3.36 -8.64 -3.2 -8.64 C -2.88 -8.64 -2.72 -8.48 -2.72 -8 L -2.72 -1.44 C -2.72 -.64 -3.04 -.32 -4.16 -.16 L -4.16 0 L 0 0 Z "/>
<path transform="matrix(.75,0,0,.75,316.12,90.41998)" d="M 0 0 L -.16 0 C -.32 .16 -.32 .16 -.64 .16 C -.8 .16 -.8 .16 -1.12 .16 C -1.44 0 -1.76 0 -1.92 0 C -3.04 0 -3.68 .64 -3.68 1.6 C -3.68 2.08 -3.52 2.72 -2.88 3.52 C -2.24 4.16 -1.92 4.8 -1.92 5.12 C -1.92 5.92 -2.4 6.4 -3.04 6.4 C -3.84 6.4 -4.32 5.76 -4.64 4.32 L -4.8 4.32 L -5.12 6.72 L -4.8 6.72 C -4.8 6.4 -4.64 6.4 -4.48 6.4 C -4.32 6.4 -4 6.4 -3.84 6.56 C -3.52 6.56 -3.2 6.56 -3.04 6.56 C -1.76 6.56 -.8 5.92 -.8 4.64 C -.8 4.16 -1.12 3.52 -1.92 2.72 C -2.4 1.92 -2.72 1.6 -2.72 1.12 C -2.72 .64 -2.4 .32 -1.76 .32 C -1.12 .32 -.64 .8 -.48 2.08 L -.32 2.08 L 0 0 Z "/>
</g>
<clipPath id="cp24">
<path transform="matrix(.75,0,0,.75,-155,-202.5)" d="M 207.04 273.28 L 207.04 542.72 L 848.96 542.72 L 848.96 273.28 Z " fill-rule="evenodd"/>
</clipPath>
<g clip-path="url(#cp24)">
<path transform="matrix(.75,0,0,.75,299.68,70.26001)" d="M 0 0 L 40 0 L 40.32 0 L 40.32 .32 L 40.32 40.32 L 40.32 40.64 L 40 40.64 L 0 40.64 L -.32 40.64 L -.32 40.32 L -.32 .32 L -.32 0 L 0 0 Z M .32 .32 L .32 40.32 L 0 40.32 L 0 40 L 40 40 L 40 40.32 L 39.68 40.32 L 39.68 .32 L 40 .32 L 40 .64 L 0 .64 L 0 .32 L .32 .32 Z "/>
<path transform="matrix(.75,0,0,.75,-155,-202.5)" d="M 526.24 360 L 566.24 360 L 566.24 401.28 L 526.24 401.28 L 526.24 360 Z " fill="#ffffff"/>
</g>
<clipPath id="cp25">
<path transform="matrix(.75,0,0,.75,-155,-202.5)" d="M 526.24 360 L 526.24 401.28 L 566.24 401.28 L 566.24 360 Z " fill-rule="evenodd"/>
</clipPath>
<g clip-path="url(#cp25)">
<path transform="matrix(.75,0,0,.75,244.23999,77.82001)" d="M 0 0 L 0 -2.56 L -2.56 -2.56 L -2.56 -3.68 L 0 -3.68 L 0 -6.24 L 1.12 -6.24 L 1.12 -3.68 L 3.68 -3.68 L 3.68 -2.56 L 1.12 -2.56 L 1.12 0 L 0 0 Z "/>
<path transform="matrix(.75,0,0,.75,244.23999,92.82001)" d="M 0 0 L 0 -2.56 L -2.56 -2.56 L -2.56 -3.68 L 0 -3.68 L 0 -6.24 L 1.12 -6.24 L 1.12 -3.68 L 3.68 -3.68 L 3.68 -2.56 L 1.12 -2.56 L 1.12 0 L 0 0 Z "/>
</g>
<clipPath id="cp26">
<path transform="matrix(.75,0,0,.75,-155,-202.5)" d="M 207.04 273.28 L 207.04 542.72 L 848.96 542.72 L 848.96 273.28 Z " fill-rule="evenodd"/>
</clipPath>
<g clip-path="url(#cp26)">
<path transform="matrix(.75,0,0,.75,239.68,67.26001)" d="M 0 0 L 40 0 L 40.32 0 L 40.32 .32 L 40.32 41.6 L 40.32 42.08 L 40 42.08 L 0 42.08 L -.32 42.08 L -.32 41.6 L -.32 .32 L -.32 0 L 0 0 Z M .32 .32 L .32 41.6 L 0 41.6 L 0 41.28 L 40 41.28 L 40 41.6 L 39.68 41.6 L 39.68 .32 L 40 .32 L 40 .64 L 0 .64 L 0 .32 L .32 .32 Z "/>
<path transform="matrix(.75,0,0,.75,-155,-202.5)" d="M 392.96 345.28 L 499.52 370.72 L 392.96 396 L 392.96 345.28 Z " fill="#ffffff"/>
</g>
<clipPath id="cp27">
<path transform="matrix(.75,0,0,.75,158.79999,79.01999)" d="M 1.12 -9.6 L 25.28 -9.6 L 25.28 2.72 L 1.12 2.72 Z " fill-rule="evenodd"/>
</clipPath>
<g clip-path="url(#cp27)">
<path transform="matrix(.75,0,0,.75,158.79999,79.01999)" d="M 0 0 L 0 -9.6 L 1.28 -9.6 L 1.28 -4.8 L 6.08 -9.6 L 7.68 -9.6 L 3.68 -5.76 L 8 0 L 6.24 0 L 2.88 -4.8 L 1.28 -3.36 L 1.28 0 L 0 0 Z M 8.8 -8.16 L 8.8 -9.6 L 10.08 -9.6 L 10.08 -8.16 L 8.8 -8.16 Z M 8.8 0 L 8.8 -6.88 L 10.08 -6.88 L 10.08 0 L 8.8 0 Z M 10.72 2.56 L 10.72 1.76 L 18.4 1.76 L 18.4 2.56 L 10.72 2.56 Z M 19.2 2.56 L 19.2 -6.88 L 20.16 -6.88 L 20.16 -6.08 C 20.48 -6.4 20.8 -6.72 21.12 -6.88 C 21.44 -7.04 21.76 -7.04 22.24 -7.04 C 22.88 -7.04 23.36 -6.88 23.84 -6.72 C 24.32 -6.4 24.64 -5.92 24.8 -5.44 C 25.12 -4.8 25.12 -4.16 25.12 -3.52 C 25.12 -2.88 25.12 -2.24 24.8 -1.6 C 24.48 -1.12 24.16 -.64 23.68 -.32 C 23.2 0 22.72 .16 22.24 .16 C 21.76 .16 21.44 0 21.12 -.16 C 20.8 -.32 20.48 -.48 20.32 -.8 L 20.32 2.56 L 19.2 2.56 Z M 20.16 -3.52 C 20.16 -2.56 20.48 -1.92 20.8 -1.44 C 21.12 -1.12 21.6 -.8 22.08 -.8 C 22.56 -.8 23.04 -1.12 23.36 -1.44 C 23.84 -1.92 24 -2.56 24 -3.52 C 24 -4.48 23.84 -5.12 23.52 -5.6 C 23.04 -5.92 22.72 -6.24 22.08 -6.24 C 21.6 -6.24 21.12 -5.92 20.8 -5.44 C 20.48 -4.96 20.16 -4.32 20.16 -3.52 Z "/>
</g>
<clipPath id="cp28">
<path transform="matrix(.75,0,0,.75,-155,-202.5)" d="M 207.04 273.28 L 207.04 542.72 L 848.96 542.72 L 848.96 273.28 Z " fill-rule="evenodd"/>
</clipPath>
<g clip-path="url(#cp28)">
<path transform="matrix(.75,0,0,.75,139.72,56.22)" d="M 0 0 L 106.72 25.28 L 108.16 25.76 L 106.72 26.08 L 0 51.36 L -.48 51.52 L -.48 51.04 L -.48 .32 L -.48 -.16 L 0 0 Z M .32 .32 L .32 51.04 L 0 51.04 L -.16 50.72 L 106.56 25.28 L 106.56 25.76 L 106.56 26.08 L -.16 .8 L 0 .32 L .32 .32 Z "/>
<path transform="matrix(.75,0,0,.75,-155,-202.5)" d="M 392.96 276 L 499.52 304 L 392.96 332 L 392.96 276 Z " fill="#ffffff"/>
</g>
<clipPath id="cp29">
<path transform="matrix(.75,0,0,.75,158.32,28.980011)" d="M .48 -9.6 L 29.6 -9.6 L 29.6 2.88 L .48 2.88 Z " fill-rule="evenodd"/>
</clipPath>
<g clip-path="url(#cp29)">
<path transform="matrix(.75,0,0,.75,158.32,28.980011)" d="M 0 0 L 0 -9.6 L 1.28 -9.6 L 1.28 -4.8 L 5.92 -9.6 L 7.68 -9.6 L 3.68 -5.6 L 7.84 0 L 6.24 0 L 2.72 -4.8 L 1.28 -3.36 L 1.28 0 L 0 0 Z M 8.64 2.72 L 8.64 -6.88 L 9.76 -6.88 L 9.76 -6.08 C 10.08 -6.4 10.24 -6.56 10.56 -6.72 C 10.88 -6.88 11.36 -7.04 11.84 -7.04 C 12.32 -7.04 12.96 -6.88 13.28 -6.56 C 13.76 -6.24 14.08 -5.92 14.4 -5.28 C 14.56 -4.8 14.72 -4.16 14.72 -3.52 C 14.72 -2.72 14.56 -2.08 14.4 -1.6 C 14.08 -.96 13.76 -.64 13.28 -.32 C 12.8 0 12.16 .16 11.68 .16 C 11.36 .16 11.04 .16 10.72 0 C 10.4 -.16 10.08 -.48 9.92 -.64 L 9.92 2.72 L 8.64 2.72 Z M 9.76 -3.36 C 9.76 -2.56 9.92 -1.92 10.24 -1.44 C 10.72 -.96 11.04 -.8 11.68 -.8 C 12.16 -.8 12.64 -.96 12.96 -1.44 C 13.28 -1.92 13.44 -2.56 13.44 -3.52 C 13.44 -4.32 13.28 -4.96 12.96 -5.44 C 12.64 -5.92 12.16 -6.08 11.68 -6.08 C 11.2 -6.08 10.72 -5.92 10.4 -5.44 C 9.92 -4.96 9.76 -4.32 9.76 -3.36 Z M 15.04 2.72 L 15.04 1.76 L 22.72 1.76 L 22.72 2.72 L 15.04 2.72 Z M 23.52 2.72 L 23.52 -6.88 L 24.48 -6.88 L 24.48 -6.08 C 24.8 -6.4 25.12 -6.56 25.44 -6.72 C 25.76 -6.88 26.08 -7.04 26.56 -7.04 C 27.2 -7.04 27.68 -6.88 28.16 -6.56 C 28.64 -6.24 28.96 -5.92 29.12 -5.28 C 29.44 -4.8 29.44 -4.16 29.44 -3.52 C 29.44 -2.72 29.44 -2.08 29.12 -1.6 C 28.8 -.96 28.48 -.64 28 -.32 C 27.52 0 27.04 .16 26.56 .16 C 26.08 .16 25.76 .16 25.44 0 C 25.12 -.16 24.8 -.48 24.64 -.64 L 24.64 2.72 L 23.52 2.72 Z M 24.48 -3.36 C 24.48 -2.56 24.8 -1.92 25.12 -1.44 C 25.44 -.96 25.92 -.8 26.4 -.8 C 26.88 -.8 27.36 -.96 27.68 -1.44 C 28.16 -1.92 28.32 -2.56 28.32 -3.52 C 28.32 -4.32 28.16 -4.96 27.84 -5.44 C 27.36 -5.92 27.04 -6.08 26.4 -6.08 C 25.92 -6.08 25.44 -5.92 25.12 -5.44 C 24.8 -4.96 24.48 -4.32 24.48 -3.36 Z "/>
</g>
<clipPath id="cp30">
<path transform="matrix(.75,0,0,.75,-155,-202.5)" d="M 207.04 273.28 L 207.04 542.72 L 848.96 542.72 L 848.96 273.28 Z " fill-rule="evenodd"/>
</clipPath>
<g clip-path="url(#cp30)">
<path transform="matrix(.75,0,0,.75,139.72,4.2599947)" d="M 0 0 L 106.72 28 L 108.16 28.32 L 106.72 28.64 L 0 56.64 L -.48 56.8 L -.48 56.32 L -.48 .32 L -.48 -.16 L 0 0 Z M .32 .32 L .32 56.32 L 0 56.32 L -.16 56 L 106.56 28 L 106.56 28.32 L 106.56 28.64 L -.16 .64 L 0 .32 L .32 .32 Z "/>
<path transform="matrix(.75,0,0,.75,16.720002,98.45999)" d="M 0 0 L 21.28 0 C 26.4 0 30.56 4.16 30.56 9.44 C 30.56 14.56 26.4 18.72 21.28 18.72 L 0 18.72 C -5.28 18.72 -9.44 14.56 -9.44 9.44 C -9.44 4.16 -5.28 0 0 0 Z " fill="#ffffff"/>
</g>
<clipPath id="cp31">
<path transform="matrix(.75,0,0,.75,22.36,107.099979)" d="M -16.96 -11.52 L -16.96 7.2 L 23.04 7.2 L 23.04 -11.52 Z " fill-rule="evenodd"/>
</clipPath>
<g clip-path="url(#cp31)">
<path transform="matrix(.75,0,0,.75,22.36,107.099979)" d="M 0 0 L 1.12 -.16 C 1.28 .48 1.44 .96 1.76 1.28 C 2.08 1.6 2.56 1.76 3.04 1.76 C 3.52 1.76 4 1.6 4.48 1.12 C 4.8 .8 4.96 .32 4.96 -.32 C 4.96 -.8 4.8 -1.28 4.48 -1.6 C 4.16 -1.92 3.68 -2.08 3.04 -2.08 C 2.88 -2.08 2.56 -2.08 2.24 -1.92 L 2.4 -3.04 L 2.56 -3.04 C 3.04 -3.04 3.52 -3.2 4 -3.36 C 4.32 -3.68 4.48 -4 4.48 -4.64 C 4.48 -4.96 4.48 -5.44 4.16 -5.6 C 3.84 -5.92 3.52 -6.08 3.04 -6.08 C 2.56 -6.08 2.08 -5.92 1.92 -5.6 C 1.6 -5.44 1.28 -4.96 1.28 -4.32 L .16 -4.64 C .16 -5.44 .48 -5.92 1.12 -6.4 C 1.6 -6.88 2.24 -7.04 2.88 -7.04 C 3.52 -7.04 4 -6.88 4.48 -6.72 C 4.8 -6.56 5.12 -6.24 5.44 -5.76 C 5.6 -5.44 5.76 -4.96 5.76 -4.64 C 5.76 -4.16 5.6 -3.84 5.44 -3.52 C 5.28 -3.04 4.8 -2.88 4.48 -2.56 C 4.96 -2.56 5.44 -2.24 5.76 -1.76 C 6.08 -1.44 6.24 -.96 6.24 -.32 C 6.24 .48 5.92 1.28 5.28 1.76 C 4.64 2.4 4 2.72 3.04 2.72 C 2.24 2.72 1.44 2.4 .96 1.92 C .32 1.44 0 .8 0 0 Z "/>
</g>
<clipPath id="cp32">
<path transform="matrix(.75,0,0,.75,16.720002,98.22)" d="M -21.92 -127.68 L -21.92 141.76 L 620 141.76 L 620 -127.68 Z " fill-rule="evenodd"/>
</clipPath>
<g clip-path="url(#cp32)">
<path transform="matrix(.75,0,0,.75,16.720002,98.22)" d="M 0 0 L 21.28 0 C 26.56 0 31.04 4.32 31.04 9.76 C 31.04 15.04 26.56 19.36 21.28 19.36 L 0 19.36 C -5.28 19.36 -9.76 15.04 -9.76 9.76 C -9.76 4.32 -5.28 0 0 0 Z M 0 .8 C -5.12 .8 -8.96 4.64 -8.96 9.76 C -8.96 14.72 -5.12 18.72 0 18.72 L 21.28 18.72 C 26.24 18.72 30.24 14.72 30.24 9.76 C 30.24 4.64 26.24 .8 21.28 .8 L 0 .8 Z "/>
</g>
<clipPath id="cp33">
<path transform="matrix(.75,0,0,.75,-155,-202.5)" d="M 209.76 380 L 209.76 398.72 L 269.44 398.72 L 269.44 380 Z " fill-rule="evenodd"/>
</clipPath>
<g clip-path="url(#cp33)">
<path transform="matrix(.75,0,0,.75,-155,-202.5)" d="M 213.92 393.28 L 211.2 386.4 L 212.48 386.4 L 213.92 390.56 C 214.08 391.04 214.24 391.52 214.4 392 C 214.56 391.52 214.72 391.2 214.88 390.72 L 216.48 386.4 L 217.6 386.4 L 215.04 393.28 L 213.92 393.28 Z M 223.36 391.04 L 224.64 391.2 C 224.32 392 224 392.48 223.52 392.96 C 223.04 393.28 222.4 393.44 221.6 393.44 C 220.48 393.44 219.68 393.12 219.2 392.64 C 218.56 392 218.24 391.04 218.24 389.92 C 218.24 388.8 218.56 387.84 219.2 387.2 C 219.68 386.56 220.48 386.24 221.44 386.24 C 222.4 386.24 223.2 386.56 223.68 387.2 C 224.32 387.84 224.64 388.64 224.64 389.92 C 224.64 389.92 224.64 390.08 224.64 390.24 L 219.52 390.24 C 219.52 390.88 219.68 391.52 220.16 391.84 C 220.48 392.32 220.96 392.48 221.6 392.48 C 221.92 392.48 222.4 392.48 222.72 392.16 C 222.88 392 223.2 391.68 223.36 391.04 Z M 219.52 389.28 L 223.36 389.28 C 223.36 388.64 223.2 388.16 222.88 387.84 C 222.56 387.52 222.08 387.2 221.44 387.2 C 220.96 387.2 220.48 387.36 220.16 387.84 C 219.84 388.16 219.52 388.64 219.52 389.28 Z M 226.08 393.28 L 226.08 383.84 L 227.2 383.84 L 227.2 393.28 L 226.08 393.28 Z M 227.84 396 L 227.84 395.2 L 235.68 395.2 L 235.68 396 L 227.84 396 Z M 236.32 393.28 L 236.32 386.4 L 237.44 386.4 L 237.44 387.36 C 237.6 387.04 237.92 386.72 238.24 386.56 C 238.72 386.4 239.04 386.24 239.52 386.24 C 240 386.24 240.48 386.4 240.8 386.56 C 241.12 386.72 241.28 387.04 241.44 387.52 C 242.08 386.72 242.72 386.24 243.68 386.24 C 244.32 386.24 244.8 386.4 245.28 386.88 C 245.6 387.2 245.76 387.84 245.76 388.64 L 245.76 393.28 L 244.64 393.28 L 244.64 388.96 C 244.64 388.48 244.48 388.16 244.48 388 C 244.32 387.68 244.32 387.52 244 387.52 C 243.84 387.36 243.68 387.2 243.36 387.2 C 242.88 387.2 242.4 387.36 242.08 387.84 C 241.76 388.16 241.6 388.64 241.6 389.28 L 241.6 393.28 L 240.48 393.28 L 240.48 388.8 C 240.48 388.32 240.32 388 240.16 387.68 C 240 387.36 239.68 387.2 239.2 387.2 C 238.88 387.2 238.56 387.36 238.4 387.52 C 238.08 387.68 237.92 388 237.76 388.32 C 237.6 388.64 237.6 389.12 237.6 389.76 L 237.6 393.28 L 236.32 393.28 Z M 252.16 391.04 L 253.44 391.2 C 253.28 392 252.96 392.48 252.32 392.96 C 251.84 393.28 251.2 393.44 250.4 393.44 C 249.44 393.44 248.64 393.12 248 392.64 C 247.36 392 247.04 391.04 247.04 389.92 C 247.04 388.8 247.36 387.84 248 387.2 C 248.64 386.56 249.44 386.24 250.24 386.24 C 251.2 386.24 252 386.56 252.64 387.2 C 253.12 387.84 253.44 388.64 253.44 389.92 C 253.44 389.92 253.44 390.08 253.44 390.24 L 248.32 390.24 C 248.32 390.88 248.64 391.52 248.96 391.84 C 249.28 392.32 249.76 392.48 250.4 392.48 C 250.88 392.48 251.2 392.48 251.52 392.16 C 251.84 392 252 391.68 252.16 391.04 Z M 248.32 389.28 L 252.16 389.28 C 252.16 388.64 252 388.16 251.84 387.84 C 251.36 387.52 250.88 387.2 250.4 387.2 C 249.76 387.2 249.28 387.36 248.96 387.84 C 248.64 388.16 248.48 388.64 248.32 389.28 Z M 259.36 392.48 C 259.04 392.8 258.56 393.12 258.08 393.28 C 257.76 393.44 257.28 393.44 256.8 393.44 C 256.16 393.44 255.52 393.28 255.04 392.96 C 254.72 392.64 254.56 392.16 254.56 391.52 C 254.56 391.2 254.56 390.88 254.72 390.56 C 254.88 390.24 255.04 390.08 255.36 389.92 C 255.52 389.76 255.84 389.6 256.16 389.6 C 256.32 389.44 256.8 389.44 257.28 389.28 C 258.08 389.28 258.88 389.12 259.36 388.96 C 259.36 388.8 259.36 388.64 259.36 388.64 C 259.36 388.16 259.2 387.84 259.04 387.68 C 258.72 387.36 258.24 387.2 257.6 387.2 C 257.12 387.2 256.64 387.36 256.48 387.52 C 256.16 387.68 256 388 255.84 388.48 L 254.72 388.32 C 254.72 387.84 255.04 387.52 255.2 387.2 C 255.52 386.88 255.84 386.72 256.32 386.56 C 256.64 386.4 257.28 386.24 257.76 386.24 C 258.4 386.24 258.88 386.4 259.2 386.4 C 259.68 386.56 259.84 386.72 260 387.04 C 260.16 387.2 260.32 387.52 260.48 387.84 C 260.48 388 260.48 388.32 260.48 388.8 L 260.48 390.4 C 260.48 391.52 260.48 392.16 260.48 392.48 C 260.64 392.8 260.64 393.12 260.8 393.28 L 259.68 393.28 C 259.52 393.12 259.36 392.8 259.36 392.48 Z M 259.36 389.92 C 258.88 390.08 258.24 390.24 257.44 390.24 C 256.96 390.4 256.64 390.4 256.32 390.56 C 256.16 390.56 256 390.72 255.84 390.88 C 255.84 391.04 255.68 391.2 255.68 391.52 C 255.68 391.84 255.84 392 256.16 392.32 C 256.32 392.48 256.64 392.64 257.12 392.64 C 257.6 392.64 257.92 392.48 258.4 392.32 C 258.72 392 258.88 391.84 259.04 391.52 C 259.2 391.2 259.36 390.88 259.36 390.24 L 259.36 389.92 Z M 261.76 391.2 L 263.04 391.04 C 263.04 391.52 263.2 391.84 263.52 392.16 C 263.84 392.32 264.16 392.48 264.8 392.48 C 265.28 392.48 265.76 392.48 265.92 392.16 C 266.24 392 266.4 391.68 266.4 391.36 C 266.4 391.2 266.24 390.88 266.08 390.72 C 265.76 390.72 265.44 390.56 264.8 390.4 C 264 390.24 263.36 390.08 263.04 389.92 C 262.72 389.76 262.4 389.44 262.24 389.12 C 262.08 388.96 262.08 388.64 262.08 388.32 C 262.08 388 262.08 387.68 262.24 387.36 C 262.4 387.2 262.56 386.88 262.72 386.72 C 263.04 386.56 263.2 386.56 263.52 386.4 C 263.84 386.24 264.16 386.24 264.48 386.24 C 265.12 386.24 265.6 386.4 265.92 386.56 C 266.4 386.72 266.72 386.88 266.88 387.2 C 267.04 387.36 267.2 387.84 267.36 388.16 L 266.08 388.32 C 266.08 388 265.92 387.68 265.76 387.52 C 265.44 387.36 265.12 387.2 264.64 387.2 C 264.16 387.2 263.68 387.36 263.52 387.52 C 263.2 387.68 263.2 387.84 263.2 388.16 C 263.2 388.32 263.2 388.48 263.2 388.48 C 263.36 388.64 263.52 388.8 263.68 388.8 C 263.84 388.8 264.16 388.96 264.8 389.12 C 265.6 389.44 266.24 389.6 266.56 389.76 C 266.88 389.76 267.04 390.08 267.2 390.24 C 267.52 390.56 267.52 390.88 267.52 391.36 C 267.52 391.68 267.36 392 267.2 392.48 C 267.04 392.8 266.72 392.96 266.24 393.28 C 265.76 393.44 265.28 393.44 264.8 393.44 C 263.84 393.44 263.2 393.28 262.72 392.96 C 262.24 392.64 261.92 392 261.76 391.2 Z "/>
</g>
<clipPath id="cp34">
<path transform="matrix(.75,0,0,.75,-155,-202.5)" d="M 207.04 273.28 L 207.04 542.72 L 848.96 542.72 L 848.96 273.28 Z " fill-rule="evenodd"/>
</clipPath>
<g clip-path="url(#cp34)">
<path transform="matrix(.75,0,0,.75,-155,-202.5)" d="M 392.96 490.72 L 382.24 485.28 L 382.24 496 L 392.96 490.72 Z "/>
<path transform="matrix(.75,0,0,.75,-155,-202.5)" d="M 339.68 490.56 L 382.08 490.56 L 382.08 490.88 L 339.68 490.88 L 339.68 490.56 Z "/>
<path transform="matrix(.75,0,0,.75,-155,-202.5)" d="M 392.96 424 L 382.24 418.72 L 382.24 429.28 L 392.96 424 Z "/>
<path transform="matrix(.75,0,0,.75,-155,-202.5)" d="M 346.4 424 L 382.08 424 L 382.08 424.32 L 346.4 424.32 L 346.4 424 Z "/>
<path transform="matrix(.75,0,0,.75,-155,-202.5)" d="M 392.96 457.28 L 382.24 452 L 382.24 462.72 L 392.96 457.28 Z "/>
<path transform="matrix(.75,0,0,.75,-155,-202.5)" d="M 259.68 457.28 L 382.08 457.28 L 382.08 457.6 L 259.68 457.6 L 259.68 457.28 Z "/>
<path transform="matrix(.75,0,0,.75,-155,-202.5)" d="M 259.68 337.28 L 350.24 337.28 L 350.24 337.6 L 259.68 337.6 L 259.68 337.28 Z "/>
<path transform="matrix(.75,0,0,.75,-155,-202.5)" d="M 392.96 370.72 L 382.24 365.28 L 382.24 376 L 392.96 370.72 Z "/>
<path transform="matrix(.75,0,0,.75,107.79999,50.58)" d="M 0 0 L 0 33.28 L -.16 33.28 L -.16 33.12 L 31.68 33.12 L 31.68 33.44 L -.16 33.44 L -.32 33.44 L -.32 33.28 L -.32 0 L 0 0 Z "/>
<path transform="matrix(.75,0,0,.75,-155,-202.5)" d="M 392.96 304 L 382.24 298.72 L 382.24 309.28 L 392.96 304 Z "/>
<path transform="matrix(.75,0,0,.75,107.56,50.58)" d="M 0 0 L 0 -33.28 L 0 -33.44 L .16 -33.44 L 32 -33.44 L 32 -33.12 L .16 -33.12 L .16 -33.28 L .32 -33.28 L .32 0 L 0 0 Z "/>
<path transform="matrix(.75,0,0,.75,109.23999,50.58)" d="M 0 0 C 0 1.12 -.96 2.08 -2.08 2.08 C -3.2 2.08 -4 1.12 -4 0 C -4 -1.12 -3.2 -1.92 -2.08 -1.92 C -.96 -1.92 0 -1.12 0 0 Z " fill-rule="evenodd"/>
<path transform="matrix(.75,0,0,.75,-155,-202.5)" d="M 526.24 390.72 L 515.52 385.28 L 515.52 396 L 526.24 390.72 Z "/>
<path transform="matrix(.75,0,0,.75,189.76001,140.45999)" d="M 0 0 L 22.72 0 L 22.72 .16 L 22.56 .16 L 22.56 -66.4 L 22.56 -66.56 L 22.72 -66.56 L 55.84 -66.56 L 55.84 -66.24 L 22.72 -66.24 L 22.72 -66.4 L 22.88 -66.4 L 22.88 .16 L 22.88 .32 L 22.72 .32 L 0 .32 L 0 0 Z "/>
<path transform="matrix(.75,0,0,.75,-155,-202.5)" d="M 746.4 377.28 L 770.4 377.28 L 770.4 377.6 L 746.4 377.6 L 746.4 377.28 Z "/>
<path transform="matrix(.75,0,0,.75,-155,-202.5)" d="M 306.24 430.72 L 295.52 425.28 L 295.52 436 L 306.24 430.72 Z "/>
<path transform="matrix(.75,0,0,.75,422.91999,80.58002)" d="M 0 0 L 0 162.88 L 0 163.04 L -.16 163.04 L -484.32 163.04 L -484.48 163.04 L -484.48 162.88 L -484.48 80.64 L -484.16 80.64 L -484.16 162.88 L -484.32 162.88 L -484.32 162.72 L -.16 162.72 L -.16 162.88 L -.32 162.88 L -.32 0 L 0 0 Z M -484.48 79.36 L -484.48 53.44 L -484.48 53.28 L -484.32 53.28 L -474.88 53.28 L -474.88 53.6 L -484.32 53.6 L -484.32 53.44 L -484.16 53.44 L -484.16 79.36 L -484.48 79.36 Z "/>
<path transform="matrix(.75,0,0,.75,-155,-202.5)" d="M 286.08 464.8 L 286.08 463.52 L 286.4 463.52 L 286.4 464.8 L 286.08 464.8 Z "/>
<path transform="matrix(.75,0,0,.75,-155,-202.5)" d="M 286.08 463.52 L 286.08 462.08 L 286.4 462.08 L 286.4 463.52 L 286.08 463.52 Z " fill="#2e2e2e"/>
<path transform="matrix(.75,0,0,.75,-155,-202.5)" d="M 286.08 462.08 L 286.08 460.8 L 286.4 460.8 L 286.4 462.08 L 286.08 462.08 Z " fill="#5d5d5d"/>
<path transform="matrix(.75,0,0,.75,-155,-202.5)" d="M 286.08 460.8 L 286.08 459.52 L 286.4 459.52 L 286.4 460.8 L 286.08 460.8 Z " fill="#8b8b8b"/>
<path transform="matrix(.75,0,0,.75,-155,-202.5)" d="M 286.08 459.52 L 286.08 458.08 L 286.4 458.08 L 286.4 459.52 L 286.08 459.52 Z " fill="#b9b9b9"/>
<path transform="matrix(.75,0,0,.75,-155,-202.5)" d="M 286.4 450.08 L 286.4 451.52 L 286.08 451.52 L 286.08 450.08 L 286.4 450.08 Z "/>
<path transform="matrix(.75,0,0,.75,-155,-202.5)" d="M 286.4 451.52 L 286.4 452.8 L 286.08 452.8 L 286.08 451.52 L 286.4 451.52 Z " fill="#2e2e2e"/>
<path transform="matrix(.75,0,0,.75,-155,-202.5)" d="M 286.4 452.8 L 286.4 454.08 L 286.08 454.08 L 286.08 452.8 L 286.4 452.8 Z " fill="#5d5d5d"/>
<path transform="matrix(.75,0,0,.75,-155,-202.5)" d="M 286.4 454.08 L 286.4 455.52 L 286.08 455.52 L 286.08 454.08 L 286.4 454.08 Z " fill="#8b8b8b"/>
<path transform="matrix(.75,0,0,.75,-155,-202.5)" d="M 286.4 455.52 L 286.4 456.8 L 286.08 456.8 L 286.08 455.52 L 286.4 455.52 Z " fill="#b9b9b9"/>
<path transform="matrix(.75,0,0,.75,-155,-202.5)" d="M 806.24 377.28 L 795.52 372 L 795.52 382.72 L 806.24 377.28 Z "/>
<path transform="matrix(.75,0,0,.75,-155,-202.5)" d="M 770.4 377.28 L 795.52 377.28 L 795.52 377.6 L 770.4 377.6 L 770.4 377.28 Z "/>
<path transform="matrix(.75,0,0,.75,424.36,80.58002)" d="M 0 0 C 0 1.12 -.96 2.08 -2.08 2.08 C -3.2 2.08 -4 1.12 -4 0 C -4 -1.12 -3.2 -1.92 -2.08 -1.92 C -.96 -1.92 0 -1.12 0 0 Z " fill-rule="evenodd"/>
<path transform="matrix(.75,0,0,.75,-155,-202.5)" d="M 706.24 384 L 695.52 378.72 L 695.52 389.28 L 706.24 384 Z "/>
<path transform="matrix(.75,0,0,.75,-155,-202.5)" d="M 646.24 384 L 695.68 384 L 695.68 384.32 L 646.24 384.32 L 646.24 384 Z "/>
<path transform="matrix(.75,0,0,.75,-155,-202.5)" d="M 606.24 384 L 595.52 378.72 L 595.52 389.28 L 606.24 384 Z "/>
<path transform="matrix(.75,0,0,.75,-155,-202.5)" d="M 566.24 384 L 595.52 384 L 595.52 384.32 L 566.24 384.32 L 566.24 384 Z "/>
<path transform="matrix(.75,0,0,.75,-155,-202.5)" d="M 526.24 370.72 L 515.52 365.28 L 515.52 376 L 526.24 370.72 Z "/>
<path transform="matrix(.75,0,0,.75,-155,-202.5)" d="M 499.68 370.56 L 515.52 370.56 L 515.52 370.88 L 499.68 370.88 L 499.68 370.56 Z "/>
<path transform="matrix(.75,0,0,.75,-155,-202.5)" d="M 706.24 364 L 695.52 358.72 L 695.52 369.28 L 706.24 364 Z "/>
<path transform="matrix(.75,0,0,.75,219.76001,25.5)" d="M 0 0 L 177.28 0 L 177.44 0 L 177.44 .16 L 177.44 60.32 L 177.28 60.32 L 177.28 60.16 L 196 60.16 L 196 60.48 L 177.28 60.48 L 177.12 60.48 L 177.12 60.32 L 177.12 .16 L 177.28 .16 L 177.28 .32 L 0 .32 L 0 0 Z "/>
<path transform="matrix(.75,0,0,.75,-155,-202.5)" d="M 306.24 410.72 L 295.52 405.28 L 295.52 416 L 306.24 410.72 Z "/>
<path transform="matrix(.75,0,0,.75,-155,-202.5)" d="M 259.68 410.56 L 295.68 410.56 L 295.68 410.88 L 259.68 410.88 L 259.68 410.56 Z "/>
</g>
</g>
</svg>
